<svg width="131" height="20" viewBox="0 0 131 20" fill="none" xmlns="http://www.w3.org/2000/svg">
<path d="M1 7L130 7.5" stroke="white" stroke-width="0.5" stroke-linecap="round"/>
<circle cx="13.5" cy="7.5" r="1.5" fill="#D9D9D9"/>
<circle cx="43.5" cy="7.5" r="1.5" fill="#D9D9D9"/>
<circle cx="73.5" cy="7.5" r="1.5" fill="#D9D9D9"/>
<circle cx="112.5" cy="7.5" r="1.5" fill="#D9D9D9"/>
<path d="M4.97046 14C4.93956 14 4.9241 13.9845 4.9241 13.9536V12.0212H4.59956C4.56865 12.0212 4.55319 12.0057 4.55319 11.9748V11.5743C4.55319 11.5433 4.56865 11.5279 4.59956 11.5279H5.86621C5.89712 11.5279 5.91257 11.5433 5.91257 11.5743V11.9748C5.91257 12.0057 5.89712 12.0212 5.86621 12.0212H5.54166V13.9536C5.54166 13.9845 5.52621 14 5.4953 14H4.97046ZM6.40339 14C6.37248 14 6.35703 13.9845 6.35703 13.9536V12.0064C6.35703 11.9755 6.37248 11.96 6.40339 11.96H6.8967C6.92761 11.96 6.94306 11.9755 6.94306 12.0064V13.9536C6.94306 13.9845 6.92761 14 6.8967 14H6.40339ZM6.39412 11.8061C6.36939 11.8061 6.35703 11.7937 6.35703 11.769V11.5335C6.35703 11.5087 6.36939 11.4964 6.39412 11.4964H6.90968C6.93194 11.4964 6.94306 11.5087 6.94306 11.5335V11.769C6.94306 11.7937 6.93194 11.8061 6.90968 11.8061H6.39412ZM7.8014 14C7.77296 14 7.74824 13.9895 7.72722 13.9685L7.41751 13.6606C7.39773 13.6396 7.38784 13.6149 7.38784 13.5864V12.3921H7.30994C7.27904 12.3921 7.26358 12.3767 7.26358 12.3457V12.0064C7.26358 11.9755 7.27904 11.96 7.30994 11.96H7.38784V11.7282C7.38784 11.6973 7.40329 11.6818 7.4342 11.6818H7.92751C7.95842 11.6818 7.97387 11.6973 7.97387 11.7282V11.96H8.15376C8.18467 11.96 8.20013 11.9755 8.20013 12.0064V12.3457C8.20013 12.3767 8.18467 12.3921 8.15376 12.3921H7.97387V13.3824C7.97387 13.4059 7.98129 13.4251 7.99613 13.4399L8.17787 13.6235C8.19024 13.6347 8.19642 13.6532 8.19642 13.6792V13.9536C8.19642 13.9845 8.18096 14 8.15005 14H7.8014ZM8.55805 14C8.52714 14 8.51169 13.9845 8.51169 13.9536V11.5743C8.51169 11.5433 8.52714 11.5279 8.55805 11.5279H9.05322C9.08413 11.5279 9.09958 11.5433 9.09958 11.5743V13.9536C9.09958 13.9845 9.08413 14 9.05322 14H8.55805ZM10.3391 14C10.3268 14 10.3132 13.9981 10.2983 13.9944C10.2847 13.9907 10.2718 13.9876 10.2594 13.9852L9.92929 13.9036L9.55096 13.7775C9.51387 13.7651 9.49532 13.7292 9.49532 13.6699V12.4366C9.49532 12.4069 9.50583 12.3822 9.52685 12.3624L9.89776 11.9915C9.91878 11.9705 9.94351 11.96 9.97194 11.96H10.5654C10.5938 11.96 10.6186 11.9705 10.6396 11.9915L11.0105 12.3624C11.0315 12.3822 11.042 12.4069 11.042 12.4366V13.197H10.0461L10.0331 13.4436L10.2965 13.5308L10.7694 13.5642C10.7904 13.5679 10.8009 13.5821 10.8009 13.6068V13.9536C10.8009 13.9845 10.7855 14 10.7546 14H10.3391ZM10.265 12.9058H10.3002C10.3608 12.9058 10.409 12.8829 10.4449 12.8372C10.4819 12.7915 10.5005 12.7296 10.5005 12.6517V12.6147C10.5005 12.538 10.4819 12.4768 10.4449 12.4311C10.409 12.3853 10.3608 12.3624 10.3002 12.3624H10.2631C10.2038 12.3624 10.1562 12.3853 10.1203 12.4311C10.0857 12.4768 10.0684 12.538 10.0684 12.6147V12.6517C10.0684 12.7296 10.0857 12.7915 10.1203 12.8372C10.1562 12.8829 10.2044 12.9058 10.265 12.9058ZM12.0092 14C11.9783 14 11.9628 13.9845 11.9628 13.9536V13.605C11.9628 13.5889 11.9634 13.5759 11.9647 13.566C11.9672 13.5561 11.9746 13.5481 11.9869 13.5419L12.4728 13.3194V12.9893L11.9944 12.6925C11.9733 12.6802 11.9628 12.6616 11.9628 12.6369V11.9563C11.9628 11.9365 11.9641 11.9223 11.9665 11.9136C11.969 11.9037 11.9783 11.8932 11.9944 11.8821L12.4821 11.552C12.4945 11.5446 12.5056 11.539 12.5155 11.5353C12.5266 11.5304 12.5402 11.5279 12.5563 11.5279H13.057C13.0879 11.5279 13.1034 11.5433 13.1034 11.5743V11.8895C13.1034 11.9167 13.0941 11.9353 13.0756 11.9452L12.5897 12.1455V12.4885L13.0756 12.7667C13.0941 12.7754 13.1034 12.7952 13.1034 12.8261V13.6328C13.1034 13.6427 13.1015 13.6532 13.0978 13.6643C13.0953 13.6755 13.0892 13.6835 13.0793 13.6884L12.4969 13.9777C12.4895 13.9815 12.4802 13.9864 12.4691 13.9926C12.4592 13.9975 12.4493 14 12.4394 14H12.0092ZM13.539 14.5564C13.5081 14.5564 13.4927 14.5409 13.4927 14.51V12.0064C13.4927 11.9755 13.5081 11.96 13.539 11.96H13.9229C13.9452 11.96 13.9668 11.9705 13.9878 11.9915L14.0806 12.0843L14.1733 11.9915C14.1931 11.9705 14.2178 11.96 14.2475 11.96H14.5312C14.5597 11.96 14.5844 11.9705 14.6054 11.9915L14.9763 12.3624C14.9973 12.3822 15.0078 12.4069 15.0078 12.4366V13.5234C15.0078 13.5531 14.9973 13.5778 14.9763 13.5976L14.6054 13.9685C14.5844 13.9895 14.5597 14 14.5312 14H14.2475C14.2178 14 14.1931 13.9895 14.1733 13.9685L14.0806 13.8757V14.51C14.0806 14.5409 14.0651 14.5564 14.0342 14.5564H13.539ZM14.0806 13.5679H14.3142C14.355 13.5679 14.3829 13.5599 14.3977 13.5438C14.4125 13.5277 14.42 13.4993 14.42 13.4585V12.5015C14.42 12.4607 14.4125 12.4323 14.3977 12.4162C14.3829 12.4001 14.355 12.3921 14.3142 12.3921H14.1844C14.1449 12.3921 14.1177 12.4001 14.1028 12.4162C14.088 12.4323 14.0806 12.4607 14.0806 12.5015V13.5679ZM15.905 14C15.8766 14 15.8519 13.9895 15.8309 13.9685L15.4599 13.5976C15.4389 13.5778 15.4284 13.5531 15.4284 13.5234V12.4366C15.4284 12.4069 15.4389 12.3822 15.4599 12.3624L15.8309 11.9915C15.8519 11.9705 15.8766 11.96 15.905 11.96H16.467C16.4966 11.96 16.5214 11.9705 16.5411 11.9915L16.9121 12.3624C16.9331 12.3822 16.9436 12.4069 16.9436 12.4366V13.5234C16.9436 13.5531 16.9331 13.5778 16.9121 13.5976L16.5411 13.9685C16.5214 13.9895 16.4966 14 16.467 14H15.905ZM16.122 13.5679H16.2518C16.2914 13.5679 16.3186 13.5599 16.3334 13.5438C16.3483 13.5277 16.3557 13.4993 16.3557 13.4585V12.5015C16.3557 12.4607 16.3483 12.4323 16.3334 12.4162C16.3186 12.4001 16.2914 12.3921 16.2518 12.3921H16.122C16.0812 12.3921 16.0534 12.4001 16.0386 12.4162C16.0237 12.4323 16.0163 12.4607 16.0163 12.5015V13.4585C16.0163 13.4993 16.0237 13.5277 16.0386 13.5438C16.0534 13.5599 16.0812 13.5679 16.122 13.5679ZM17.422 14C17.3911 14 17.3756 13.9845 17.3756 13.9536V12.0064C17.3756 11.9755 17.3911 11.96 17.422 11.96H18.4142C18.4426 11.96 18.4673 11.9705 18.4884 11.9915L18.8593 12.3624C18.8803 12.3822 18.8908 12.4069 18.8908 12.4366V13.9536C18.8908 13.9845 18.8753 14 18.8444 14H18.3493C18.3184 14 18.3029 13.9845 18.3029 13.9536V12.5108C18.3029 12.4527 18.2739 12.4236 18.2157 12.4236H17.9635V13.9536C17.9635 13.9845 17.9481 14 17.9172 14H17.422ZM19.3132 14C19.2823 14 19.2669 13.9845 19.2669 13.9536V13.6532C19.2669 13.6248 19.2761 13.6062 19.2947 13.5976L19.673 13.3732V13.1803L19.2947 12.9763C19.2761 12.9652 19.2669 12.946 19.2669 12.9188V12.3272C19.2669 12.3136 19.2687 12.3025 19.2724 12.2938C19.2774 12.2852 19.2842 12.2777 19.2928 12.2716L19.6878 11.9823C19.7014 11.9724 19.7126 11.9662 19.7212 11.9637C19.7299 11.9612 19.7385 11.96 19.7472 11.96H20.1978C20.2288 11.96 20.2442 11.9755 20.2442 12.0064V12.2975C20.2442 12.3185 20.2424 12.3328 20.2386 12.3402C20.2362 12.3476 20.23 12.3538 20.2201 12.3587L19.8696 12.5479V12.763L20.2442 12.9485C20.2652 12.9571 20.2757 12.9757 20.2757 13.0041V13.5735C20.2757 13.6044 20.2652 13.6291 20.2442 13.6476L19.8492 13.9759C19.8294 13.992 19.8047 14 19.775 14H19.3132ZM21.1282 14C21.0998 14 21.075 13.9895 21.054 13.9685L20.6831 13.5976C20.6621 13.5778 20.6516 13.5531 20.6516 13.5234V12.4366C20.6516 12.4069 20.6621 12.3822 20.6831 12.3624L21.054 11.9915C21.075 11.9705 21.0998 11.96 21.1282 11.96H21.6901C21.7198 11.96 21.7445 11.9705 21.7643 11.9915L22.1352 12.3624C22.1562 12.3822 22.1667 12.4069 22.1667 12.4366V13.5234C22.1667 13.5531 22.1562 13.5778 22.1352 13.5976L21.7643 13.9685C21.7445 13.9895 21.7198 14 21.6901 14H21.1282ZM21.3452 13.5679H21.475C21.5146 13.5679 21.5418 13.5599 21.5566 13.5438C21.5714 13.5277 21.5788 13.4993 21.5788 13.4585V12.5015C21.5788 12.4607 21.5714 12.4323 21.5566 12.4162C21.5418 12.4001 21.5146 12.3921 21.475 12.3921H21.3452C21.3044 12.3921 21.2766 12.4001 21.2617 12.4162C21.2469 12.4323 21.2395 12.4607 21.2395 12.5015V13.4585C21.2395 13.4993 21.2469 13.5277 21.2617 13.5438C21.2766 13.5599 21.3044 13.5679 21.3452 13.5679ZM22.6452 14C22.6142 14 22.5988 13.9845 22.5988 13.9536V12.0064C22.5988 11.9755 22.6142 11.96 22.6452 11.96H22.927C22.9505 11.96 22.9709 11.9705 22.9882 11.9915L23.17 12.2011L23.3721 11.9823C23.3857 11.9674 23.403 11.96 23.4241 11.96H23.6244C23.6553 11.96 23.6707 11.9755 23.6707 12.0064V12.4051C23.6707 12.4249 23.6695 12.4385 23.667 12.4459C23.6645 12.4521 23.6577 12.4589 23.6466 12.4663L23.1867 12.8057V13.9536C23.1867 13.9845 23.1712 14 23.1403 14H22.6452Z" fill="white"/>
<path d="M7.74831 4C7.7174 4 7.70195 3.98455 7.70195 3.95364V2.01193L7.45344 2.0212C7.42253 2.0212 7.40708 2.00575 7.40708 1.97484V1.57425C7.40708 1.54335 7.42253 1.52789 7.45344 1.52789H8.27315C8.30406 1.52789 8.31951 1.54335 8.31951 1.57425V3.95364C8.31951 3.98455 8.30406 4 8.27315 4H7.74831ZM8.73794 3.98516C8.70704 3.98516 8.69158 3.96847 8.69158 3.93509V3.34535C8.69158 3.31196 8.70704 3.29527 8.73794 3.29527H9.3314C9.36231 3.29527 9.37776 3.31196 9.37776 3.34535V3.93509C9.37776 3.96847 9.36231 3.98516 9.3314 3.98516H8.73794ZM9.86235 4C9.82649 4 9.81289 3.98331 9.82155 3.94993L10.3835 2.16771V2.11393H9.64537C9.61446 2.11393 9.599 2.09847 9.599 2.06756V1.57425C9.599 1.54335 9.61446 1.52789 9.64537 1.52789H10.734C10.7575 1.52789 10.776 1.53716 10.7896 1.55571L11.04 1.90065C11.0536 1.92415 11.0573 1.94516 11.0511 1.96371L10.4836 3.9592C10.4762 3.9864 10.4595 4 10.4335 4H9.86235ZM11.3261 4C11.2952 4 11.2798 3.98455 11.2798 3.95364V3.58273C11.2798 3.55182 11.2952 3.53636 11.3261 3.53636H12.1533V3.01153H11.3261C11.2952 3.01153 11.2798 2.99607 11.2798 2.96516L11.2816 1.57425C11.2816 1.54335 11.2971 1.52789 11.328 1.52789H12.7263C12.7572 1.52789 12.7727 1.54335 12.7727 1.57425V1.94516C12.7727 1.97607 12.7572 1.99153 12.7263 1.99153H11.901V2.51636H12.7263C12.7572 2.51636 12.7727 2.53182 12.7727 2.56273V3.52709C12.7727 3.54935 12.7653 3.56913 12.7504 3.58644L12.3573 3.97775C12.3437 3.99258 12.3245 4 12.2998 4H11.3261ZM13.7093 4C13.6784 4 13.6629 3.98455 13.6629 3.95364V1.57425C13.6629 1.54335 13.6784 1.52789 13.7093 1.52789H14.2341C14.265 1.52789 14.2805 1.54335 14.2805 1.57425V3.50484H14.7478C14.7787 3.50484 14.7942 3.52029 14.7942 3.5512V3.95364C14.7942 3.98455 14.7787 4 14.7478 4H13.7093ZM15.5537 4C15.5253 4 15.5005 3.98949 15.4795 3.96847L15.1086 3.59756C15.0876 3.57778 15.0771 3.55305 15.0771 3.52338V2.43662C15.0771 2.40695 15.0876 2.38222 15.1086 2.36244L15.4795 1.99153C15.5005 1.97051 15.5253 1.96 15.5537 1.96H16.5459C16.5768 1.96 16.5922 1.97545 16.5922 2.00636V3.95364C16.5922 3.98455 16.5768 4 16.5459 4H16.1601C16.1441 4 16.1317 3.99691 16.123 3.99073C16.1156 3.98455 16.107 3.97713 16.0971 3.96847L16.0043 3.87575L15.9116 3.96847C15.8918 3.98949 15.8671 4 15.8374 4H15.5537ZM15.7707 3.56789H15.9005C15.9401 3.56789 15.9673 3.55985 15.9821 3.54378C15.9969 3.52771 16.0043 3.49927 16.0043 3.45847V2.39211H15.7707C15.7299 2.39211 15.7021 2.40015 15.6872 2.41622C15.6724 2.43229 15.665 2.46073 15.665 2.50153V3.45847C15.665 3.49927 15.6724 3.52771 15.6872 3.54378C15.7021 3.55985 15.7299 3.56789 15.7707 3.56789ZM18.0536 4C18.0375 4 18.0245 3.99753 18.0146 3.99258C18.006 3.98764 18.0004 3.98084 17.9979 3.97218L17.7846 3.13207H17.6122V2.68698H17.7846L17.9979 1.99153C18.0004 1.98164 18.006 1.97484 18.0146 1.97113C18.0245 1.96618 18.0375 1.96371 18.0536 1.96371H18.5228C18.5537 1.96371 18.5691 1.97916 18.5691 2.01007V2.20665C18.5691 2.22396 18.5679 2.23756 18.5654 2.24745C18.5629 2.25735 18.5592 2.26785 18.5543 2.27898L18.2798 2.91138V2.97444L18.5691 3.68473C18.5753 3.69833 18.5796 3.71069 18.5821 3.72182C18.5846 3.73171 18.5858 3.74284 18.5858 3.7552V3.95364C18.5858 3.98455 18.5704 4 18.5394 4H18.0536ZM17.0706 4C17.0397 4 17.0243 3.98455 17.0243 3.95364V1.57425C17.0243 1.54335 17.0397 1.52789 17.0706 1.52789H17.5658C17.5967 1.52789 17.6122 1.54335 17.6122 1.57425V3.95364C17.6122 3.98455 17.5967 4 17.5658 4H17.0706ZM18.965 4C18.9341 4 18.9187 3.98455 18.9187 3.95364V1.57425C18.9187 1.54335 18.9341 1.52789 18.965 1.52789H19.4602C19.4911 1.52789 19.5066 1.54335 19.5066 1.57425V1.96H19.9572C19.9857 1.96 20.0104 1.97051 20.0314 1.99153L20.4023 2.36244C20.4233 2.38222 20.4338 2.40695 20.4338 2.43662V3.95364C20.4338 3.98455 20.4184 4 20.3875 4H19.8923C19.8614 4 19.8459 3.98455 19.8459 3.95364V2.50153C19.8459 2.4496 19.82 2.42364 19.7681 2.42364H19.5066V3.95364C19.5066 3.98455 19.4911 4 19.4602 4H18.965Z" fill="white"/>
<path d="M35.8171 4C35.7862 4 35.7708 3.98455 35.7708 3.95364V2.01193L35.5223 2.0212C35.4914 2.0212 35.4759 2.00575 35.4759 1.97484V1.57425C35.4759 1.54335 35.4914 1.52789 35.5223 1.52789H36.342C36.3729 1.52789 36.3883 1.54335 36.3883 1.57425V3.95364C36.3883 3.98455 36.3729 4 36.342 4H35.8171ZM36.8068 3.98516C36.7759 3.98516 36.7604 3.96847 36.7604 3.93509V3.34535C36.7604 3.31196 36.7759 3.29527 36.8068 3.29527H37.4002C37.4311 3.29527 37.4466 3.31196 37.4466 3.34535V3.93509C37.4466 3.96847 37.4311 3.98516 37.4002 3.98516H36.8068ZM37.7754 4C37.7445 4 37.729 3.98455 37.729 3.95364L37.7272 3.35091C37.7272 3.33855 37.7296 3.32865 37.7346 3.32124C37.7395 3.31258 37.7463 3.30269 37.755 3.29156L38.341 2.57756V2.20109L37.755 1.97484C37.7364 1.96865 37.7272 1.95011 37.7272 1.9192V1.57425C37.7272 1.54335 37.7426 1.52789 37.7735 1.52789H38.2427C38.26 1.52789 38.2736 1.53036 38.2835 1.53531C38.2934 1.54025 38.3046 1.54582 38.3169 1.552L38.9289 1.82091C38.945 1.82709 38.9543 1.83575 38.9567 1.84687C38.9592 1.858 38.9604 1.87407 38.9604 1.89509V2.69625C38.9604 2.70862 38.9574 2.71789 38.9512 2.72407C38.9462 2.72902 38.9388 2.73829 38.9289 2.75189L38.3484 3.45847V3.53265H39.0124C39.0433 3.53265 39.0587 3.54811 39.0587 3.57902V3.95364C39.0587 3.98455 39.0433 4 39.0124 4H37.7754ZM39.2573 4C39.2264 4 39.211 3.98455 39.211 3.95364V3.58273C39.211 3.55182 39.2264 3.53636 39.2573 3.53636H40.0844V3.01153H39.2573C39.2264 3.01153 39.211 2.99607 39.211 2.96516L39.2128 1.57425C39.2128 1.54335 39.2283 1.52789 39.2592 1.52789H40.6575C40.6884 1.52789 40.7039 1.54335 40.7039 1.57425V1.94516C40.7039 1.97607 40.6884 1.99153 40.6575 1.99153H39.8322V2.51636H40.6575C40.6884 2.51636 40.7039 2.53182 40.7039 2.56273V3.52709C40.7039 3.54935 40.6964 3.56913 40.6816 3.58644L40.2884 3.97775C40.2748 3.99258 40.2557 4 40.231 4H39.2573ZM41.6405 4C41.6096 4 41.5941 3.98455 41.5941 3.95364V1.57425C41.5941 1.54335 41.6096 1.52789 41.6405 1.52789H42.1653C42.1962 1.52789 42.2117 1.54335 42.2117 1.57425V3.50484H42.679C42.7099 3.50484 42.7254 3.52029 42.7254 3.5512V3.95364C42.7254 3.98455 42.7099 4 42.679 4H41.6405ZM43.4849 4C43.4564 4 43.4317 3.98949 43.4107 3.96847L43.0398 3.59756C43.0188 3.57778 43.0082 3.55305 43.0082 3.52338V2.43662C43.0082 2.40695 43.0188 2.38222 43.0398 2.36244L43.4107 1.99153C43.4317 1.97051 43.4564 1.96 43.4849 1.96H44.477C44.508 1.96 44.5234 1.97545 44.5234 2.00636V3.95364C44.5234 3.98455 44.508 4 44.477 4H44.0913C44.0752 4 44.0629 3.99691 44.0542 3.99073C44.0468 3.98455 44.0381 3.97713 44.0282 3.96847L43.9355 3.87575L43.8428 3.96847C43.823 3.98949 43.7983 4 43.7686 4H43.4849ZM43.7018 3.56789H43.8317C43.8712 3.56789 43.8984 3.55985 43.9133 3.54378C43.9281 3.52771 43.9355 3.49927 43.9355 3.45847V2.39211H43.7018C43.661 2.39211 43.6332 2.40015 43.6184 2.41622C43.6036 2.43229 43.5961 2.46073 43.5961 2.50153V3.45847C43.5961 3.49927 43.6036 3.52771 43.6184 3.54378C43.6332 3.55985 43.661 3.56789 43.7018 3.56789ZM45.9847 4C45.9687 4 45.9557 3.99753 45.9458 3.99258C45.9371 3.98764 45.9316 3.98084 45.9291 3.97218L45.7158 3.13207H45.5434V2.68698H45.7158L45.9291 1.99153C45.9316 1.98164 45.9371 1.97484 45.9458 1.97113C45.9557 1.96618 45.9687 1.96371 45.9847 1.96371H46.4539C46.4848 1.96371 46.5003 1.97916 46.5003 2.01007V2.20665C46.5003 2.22396 46.4991 2.23756 46.4966 2.24745C46.4941 2.25735 46.4904 2.26785 46.4855 2.27898L46.211 2.91138V2.97444L46.5003 3.68473C46.5065 3.69833 46.5108 3.71069 46.5133 3.72182C46.5158 3.73171 46.517 3.74284 46.517 3.7552V3.95364C46.517 3.98455 46.5015 4 46.4706 4H45.9847ZM45.0018 4C44.9709 4 44.9555 3.98455 44.9555 3.95364V1.57425C44.9555 1.54335 44.9709 1.52789 45.0018 1.52789H45.497C45.5279 1.52789 45.5434 1.54335 45.5434 1.57425V3.95364C45.5434 3.98455 45.5279 4 45.497 4H45.0018ZM46.8962 4C46.8653 4 46.8499 3.98455 46.8499 3.95364V1.57425C46.8499 1.54335 46.8653 1.52789 46.8962 1.52789H47.3914C47.4223 1.52789 47.4377 1.54335 47.4377 1.57425V1.96H47.8884C47.9168 1.96 47.9416 1.97051 47.9626 1.99153L48.3335 2.36244C48.3545 2.38222 48.365 2.40695 48.365 2.43662V3.95364C48.365 3.98455 48.3496 4 48.3187 4H47.8235C47.7926 4 47.7771 3.98455 47.7771 3.95364V2.50153C47.7771 2.4496 47.7512 2.42364 47.6992 2.42364H47.4377V3.95364C47.4377 3.98455 47.4223 4 47.3914 4H46.8962Z" fill="white"/>
<path d="M68.5868 4C68.5559 4 68.5405 3.98455 68.5405 3.95364V2.01193L68.292 2.0212C68.2611 2.0212 68.2456 2.00575 68.2456 1.97484V1.57425C68.2456 1.54335 68.2611 1.52789 68.292 1.52789H69.1117C69.1426 1.52789 69.158 1.54335 69.158 1.57425V3.95364C69.158 3.98455 69.1426 4 69.1117 4H68.5868ZM69.5765 3.98516C69.5456 3.98516 69.5301 3.96847 69.5301 3.93509V3.34535C69.5301 3.31196 69.5456 3.29527 69.5765 3.29527H70.1699C70.2008 3.29527 70.2163 3.31196 70.2163 3.34535V3.93509C70.2163 3.96847 70.2008 3.98516 70.1699 3.98516H69.5765ZM70.4876 4C70.4567 4 70.4412 3.98455 70.4412 3.95364V3.58273C70.4412 3.55182 70.4567 3.53636 70.4876 3.53636H71.3147V3.01153H70.4876C70.4567 3.01153 70.4412 2.99607 70.4412 2.96516L70.4431 1.57425C70.4431 1.54335 70.4586 1.52789 70.4895 1.52789H71.8878C71.9187 1.52789 71.9342 1.54335 71.9342 1.57425V1.94516C71.9342 1.97607 71.9187 1.99153 71.8878 1.99153H71.0625V2.51636H71.8878C71.9187 2.51636 71.9342 2.53182 71.9342 2.56273V3.52709C71.9342 3.54935 71.9267 3.56913 71.9119 3.58644L71.5187 3.97775C71.5051 3.99258 71.486 4 71.4612 4H70.4876ZM72.8708 4C72.8398 4 72.8244 3.98455 72.8244 3.95364V1.57425C72.8244 1.54335 72.8398 1.52789 72.8708 1.52789H73.3956C73.4265 1.52789 73.442 1.54335 73.442 1.57425V3.50484H73.9093C73.9402 3.50484 73.9557 3.52029 73.9557 3.5512V3.95364C73.9557 3.98455 73.9402 4 73.9093 4H72.8708ZM74.7152 4C74.6867 4 74.662 3.98949 74.641 3.96847L74.2701 3.59756C74.2491 3.57778 74.2385 3.55305 74.2385 3.52338V2.43662C74.2385 2.40695 74.2491 2.38222 74.2701 2.36244L74.641 1.99153C74.662 1.97051 74.6867 1.96 74.7152 1.96H75.7073C75.7383 1.96 75.7537 1.97545 75.7537 2.00636V3.95364C75.7537 3.98455 75.7383 4 75.7073 4H75.3216C75.3055 4 75.2932 3.99691 75.2845 3.99073C75.2771 3.98455 75.2684 3.97713 75.2585 3.96847L75.1658 3.87575L75.0731 3.96847C75.0533 3.98949 75.0286 4 74.9989 4H74.7152ZM74.9321 3.56789H75.062C75.1015 3.56789 75.1287 3.55985 75.1436 3.54378C75.1584 3.52771 75.1658 3.49927 75.1658 3.45847V2.39211H74.9321C74.8913 2.39211 74.8635 2.40015 74.8487 2.41622C74.8339 2.43229 74.8264 2.46073 74.8264 2.50153V3.45847C74.8264 3.49927 74.8339 3.52771 74.8487 3.54378C74.8635 3.55985 74.8913 3.56789 74.9321 3.56789ZM77.215 4C77.199 4 77.186 3.99753 77.1761 3.99258C77.1674 3.98764 77.1619 3.98084 77.1594 3.97218L76.9461 3.13207H76.7736V2.68698H76.9461L77.1594 1.99153C77.1619 1.98164 77.1674 1.97484 77.1761 1.97113C77.186 1.96618 77.199 1.96371 77.215 1.96371H77.6842C77.7151 1.96371 77.7306 1.97916 77.7306 2.01007V2.20665C77.7306 2.22396 77.7294 2.23756 77.7269 2.24745C77.7244 2.25735 77.7207 2.26785 77.7158 2.27898L77.4413 2.91138V2.97444L77.7306 3.68473C77.7368 3.69833 77.7411 3.71069 77.7436 3.72182C77.746 3.73171 77.7473 3.74284 77.7473 3.7552V3.95364C77.7473 3.98455 77.7318 4 77.7009 4H77.215ZM76.2321 4C76.2012 4 76.1858 3.98455 76.1858 3.95364V1.57425C76.1858 1.54335 76.2012 1.52789 76.2321 1.52789H76.7273C76.7582 1.52789 76.7736 1.54335 76.7736 1.57425V3.95364C76.7736 3.98455 76.7582 4 76.7273 4H76.2321ZM78.1265 4C78.0956 4 78.0801 3.98455 78.0801 3.95364V1.57425C78.0801 1.54335 78.0956 1.52789 78.1265 1.52789H78.6217C78.6526 1.52789 78.668 1.54335 78.668 1.57425V1.96H79.1187C79.1471 1.96 79.1719 1.97051 79.1929 1.99153L79.5638 2.36244C79.5848 2.38222 79.5953 2.40695 79.5953 2.43662V3.95364C79.5953 3.98455 79.5799 4 79.5489 4H79.0538C79.0229 4 79.0074 3.98455 79.0074 3.95364V2.50153C79.0074 2.4496 78.9815 2.42364 78.9295 2.42364H78.668V3.95364C78.668 3.98455 78.6526 4 78.6217 4H78.1265Z" fill="white"/>
<path d="M110.188 4C110.158 4 110.142 3.98455 110.142 3.95364V3.58273C110.142 3.55182 110.158 3.53636 110.188 3.53636H111.016V3.01153H110.188C110.158 3.01153 110.142 2.99607 110.142 2.96516L110.144 1.57425C110.144 1.54335 110.159 1.52789 110.19 1.52789H111.589C111.62 1.52789 111.635 1.54335 111.635 1.57425V1.94516C111.635 1.97607 111.62 1.99153 111.589 1.99153H110.763V2.51636H111.589C111.62 2.51636 111.635 2.53182 111.635 2.56273V3.52709C111.635 3.54935 111.628 3.56913 111.613 3.58644L111.22 3.97775C111.206 3.99258 111.187 4 111.162 4H110.188ZM112.117 4C112.046 4 111.998 3.98578 111.972 3.95735C111.947 3.92767 111.935 3.88502 111.935 3.82938V1.70036C111.935 1.64473 111.947 1.60269 111.972 1.57425C111.998 1.54458 112.046 1.52975 112.117 1.52975L113.391 1.52418C113.462 1.52418 113.511 1.53902 113.535 1.56869C113.56 1.59713 113.572 1.63916 113.572 1.6948V3.82938C113.572 3.88502 113.56 3.92767 113.535 3.95735C113.511 3.98578 113.462 4 113.391 4H112.117ZM112.552 3.53636H112.955V1.98782H112.552V3.53636ZM114.064 4C114.033 4 114.018 3.98455 114.018 3.95364V1.57425C114.018 1.54335 114.033 1.52789 114.064 1.52789H114.589C114.62 1.52789 114.635 1.54335 114.635 1.57425V2.55716H114.865L114.988 2.09538L115.099 1.552C115.101 1.54458 115.107 1.53902 115.115 1.53531C115.125 1.53036 115.14 1.52789 115.158 1.52789H115.692C115.723 1.52789 115.739 1.54335 115.739 1.57425V1.80607C115.739 1.81967 115.737 1.83327 115.733 1.84687C115.729 1.85924 115.726 1.87036 115.724 1.88025L115.498 2.42364L115.34 2.72036L115.501 3.01338L115.774 3.6328C115.779 3.64145 115.783 3.65073 115.785 3.66062C115.787 3.67051 115.789 3.68473 115.789 3.70327V3.95364C115.789 3.98455 115.773 4 115.742 4H115.19C115.181 4 115.17 3.99876 115.156 3.99629C115.144 3.99258 115.137 3.98455 115.134 3.97218L114.997 3.38429L114.895 3.04862H114.635V3.95364C114.635 3.98455 114.62 4 114.589 4H114.064Z" fill="white"/>
<path d="M36.0909 14C36.0625 14 36.0378 13.992 36.0167 13.9759L35.7145 13.6996L35.4085 13.3008C35.3949 13.2835 35.3862 13.273 35.3825 13.2693C35.3788 13.2644 35.3769 13.2532 35.3769 13.2359V12.2901C35.3769 12.2728 35.3788 12.2617 35.3825 12.2567C35.3874 12.2518 35.3961 12.2413 35.4085 12.2252L35.6922 11.858L36.0167 11.552C36.0303 11.5409 36.0409 11.5341 36.0483 11.5316C36.0569 11.5291 36.0711 11.5279 36.0909 11.5279H36.549C36.5799 11.5279 36.5954 11.5433 36.5954 11.5743V11.871C36.5954 11.8809 36.5941 11.8914 36.5917 11.9025C36.5904 11.9124 36.5842 11.9211 36.5731 11.9285L36.2245 12.1677L35.9963 12.4607V13.0672L36.2282 13.3602L36.5731 13.5976C36.583 13.6037 36.5892 13.6112 36.5917 13.6198C36.5941 13.6285 36.5954 13.6377 36.5954 13.6476V13.9536C36.5954 13.9845 36.5799 14 36.549 14H36.0909ZM37.4183 14C37.3899 14 37.3652 13.9895 37.3441 13.9685L36.9732 13.5976C36.9522 13.5778 36.9417 13.5531 36.9417 13.5234V12.4366C36.9417 12.4069 36.9522 12.3822 36.9732 12.3624L37.3441 11.9915C37.3652 11.9705 37.3899 11.96 37.4183 11.96H37.9802C38.0099 11.96 38.0346 11.9705 38.0544 11.9915L38.4253 12.3624C38.4464 12.3822 38.4569 12.4069 38.4569 12.4366V13.5234C38.4569 13.5531 38.4464 13.5778 38.4253 13.5976L38.0544 13.9685C38.0346 13.9895 38.0099 14 37.9802 14H37.4183ZM37.6353 13.5679H37.7651C37.8047 13.5679 37.8319 13.5599 37.8467 13.5438C37.8616 13.5277 37.869 13.4993 37.869 13.4585V12.5015C37.869 12.4607 37.8616 12.4323 37.8467 12.4162C37.8319 12.4001 37.8047 12.3921 37.7651 12.3921H37.6353C37.5945 12.3921 37.5667 12.4001 37.5518 12.4162C37.537 12.4323 37.5296 12.4607 37.5296 12.5015V13.4585C37.5296 13.4993 37.537 13.5277 37.5518 13.5438C37.5667 13.5599 37.5945 13.5679 37.6353 13.5679ZM39.3402 13.0579C39.3093 13.0579 39.2939 13.0424 39.2939 13.0115V12.5164C39.2939 12.4855 39.3093 12.47 39.3402 12.47H40.2861C40.317 12.47 40.3324 12.4855 40.3324 12.5164V13.0115C40.3324 13.0424 40.317 13.0579 40.2861 13.0579H39.3402ZM41.1725 14C41.1416 14 41.1261 13.9845 41.1261 13.9536V13.605C41.1261 13.5889 41.1267 13.5759 41.128 13.566C41.1304 13.5561 41.1379 13.5481 41.1502 13.5419L41.6361 13.3194V12.9893L41.1576 12.6925C41.1366 12.6802 41.1261 12.6616 41.1261 12.6369V11.9563C41.1261 11.9365 41.1273 11.9223 41.1298 11.9136C41.1323 11.9037 41.1416 11.8932 41.1576 11.8821L41.6454 11.552C41.6577 11.5446 41.6689 11.539 41.6788 11.5353C41.6899 11.5304 41.7035 11.5279 41.7196 11.5279H42.2203C42.2512 11.5279 42.2667 11.5433 42.2667 11.5743V11.8895C42.2667 11.9167 42.2574 11.9353 42.2388 11.9452L41.7529 12.1455V12.4885L42.2388 12.7667C42.2574 12.7754 42.2667 12.7952 42.2667 12.8261V13.6328C42.2667 13.6427 42.2648 13.6532 42.2611 13.6643C42.2586 13.6755 42.2524 13.6835 42.2425 13.6884L41.6602 13.9777C41.6528 13.9815 41.6435 13.9864 41.6324 13.9926C41.6225 13.9975 41.6126 14 41.6027 14H41.1725ZM42.7023 14.5564C42.6714 14.5564 42.656 14.5409 42.656 14.51V12.0064C42.656 11.9755 42.6714 11.96 42.7023 11.96H43.0862C43.1085 11.96 43.1301 11.9705 43.1511 11.9915L43.2439 12.0843L43.3366 11.9915C43.3564 11.9705 43.3811 11.96 43.4108 11.96H43.6945C43.7229 11.96 43.7477 11.9705 43.7687 11.9915L44.1396 12.3624C44.1606 12.3822 44.1711 12.4069 44.1711 12.4366V13.5234C44.1711 13.5531 44.1606 13.5778 44.1396 13.5976L43.7687 13.9685C43.7477 13.9895 43.7229 14 43.6945 14H43.4108C43.3811 14 43.3564 13.9895 43.3366 13.9685L43.2439 13.8757V14.51C43.2439 14.5409 43.2284 14.5564 43.1975 14.5564H42.7023ZM43.2439 13.5679H43.4775C43.5183 13.5679 43.5461 13.5599 43.561 13.5438C43.5758 13.5277 43.5832 13.4993 43.5832 13.4585V12.5015C43.5832 12.4607 43.5758 12.4323 43.561 12.4162C43.5461 12.4001 43.5183 12.3921 43.4775 12.3921H43.3477C43.3081 12.3921 43.2809 12.4001 43.2661 12.4162C43.2513 12.4323 43.2439 12.4607 43.2439 12.5015V13.5679ZM45.0683 14C45.0399 14 45.0152 13.9895 44.9941 13.9685L44.6232 13.5976C44.6022 13.5778 44.5917 13.5531 44.5917 13.5234V12.4366C44.5917 12.4069 44.6022 12.3822 44.6232 12.3624L44.9941 11.9915C45.0152 11.9705 45.0399 11.96 45.0683 11.96H45.6302C45.6599 11.96 45.6846 11.9705 45.7044 11.9915L46.0753 12.3624C46.0964 12.3822 46.1069 12.4069 46.1069 12.4366V13.5234C46.1069 13.5531 46.0964 13.5778 46.0753 13.5976L45.7044 13.9685C45.6846 13.9895 45.6599 14 45.6302 14H45.0683ZM45.2853 13.5679H45.4151C45.4547 13.5679 45.4819 13.5599 45.4967 13.5438C45.5116 13.5277 45.519 13.4993 45.519 13.4585V12.5015C45.519 12.4607 45.5116 12.4323 45.4967 12.4162C45.4819 12.4001 45.4547 12.3921 45.4151 12.3921H45.2853C45.2445 12.3921 45.2167 12.4001 45.2018 12.4162C45.187 12.4323 45.1796 12.4607 45.1796 12.5015V13.4585C45.1796 13.4993 45.187 13.5277 45.2018 13.5438C45.2167 13.5599 45.2445 13.5679 45.2853 13.5679ZM46.5853 14C46.5544 14 46.5389 13.9845 46.5389 13.9536V12.0064C46.5389 11.9755 46.5544 11.96 46.5853 11.96H47.5775C47.6059 11.96 47.6306 11.9705 47.6516 11.9915L48.0226 12.3624C48.0436 12.3822 48.0541 12.4069 48.0541 12.4366V13.9536C48.0541 13.9845 48.0386 14 48.0077 14H47.5126C47.4816 14 47.4662 13.9845 47.4662 13.9536V12.5108C47.4662 12.4527 47.4371 12.4236 47.379 12.4236H47.1268V13.9536C47.1268 13.9845 47.1114 14 47.0804 14H46.5853ZM48.4765 14C48.4456 14 48.4301 13.9845 48.4301 13.9536V13.6532C48.4301 13.6248 48.4394 13.6062 48.458 13.5976L48.8363 13.3732V13.1803L48.458 12.9763C48.4394 12.9652 48.4301 12.946 48.4301 12.9188V12.3272C48.4301 12.3136 48.432 12.3025 48.4357 12.2938C48.4407 12.2852 48.4475 12.2777 48.4561 12.2716L48.8511 11.9823C48.8647 11.9724 48.8759 11.9662 48.8845 11.9637C48.8932 11.9612 48.9018 11.96 48.9105 11.96H49.3611C49.392 11.96 49.4075 11.9755 49.4075 12.0064V12.2975C49.4075 12.3185 49.4056 12.3328 49.4019 12.3402C49.3995 12.3476 49.3933 12.3538 49.3834 12.3587L49.0329 12.5479V12.763L49.4075 12.9485C49.4285 12.9571 49.439 12.9757 49.439 13.0041V13.5735C49.439 13.6044 49.4285 13.6291 49.4075 13.6476L49.0125 13.9759C48.9927 13.992 48.968 14 48.9383 14H48.4765ZM50.2915 14C50.263 14 50.2383 13.9895 50.2173 13.9685L49.8464 13.5976C49.8254 13.5778 49.8149 13.5531 49.8149 13.5234V12.4366C49.8149 12.4069 49.8254 12.3822 49.8464 12.3624L50.2173 11.9915C50.2383 11.9705 50.263 11.96 50.2915 11.96H50.8534C50.8831 11.96 50.9078 11.9705 50.9276 11.9915L51.2985 12.3624C51.3195 12.3822 51.33 12.4069 51.33 12.4366V13.5234C51.33 13.5531 51.3195 13.5778 51.2985 13.5976L50.9276 13.9685C50.9078 13.9895 50.8831 14 50.8534 14H50.2915ZM50.5085 13.5679H50.6383C50.6778 13.5679 50.705 13.5599 50.7199 13.5438C50.7347 13.5277 50.7421 13.4993 50.7421 13.4585V12.5015C50.7421 12.4607 50.7347 12.4323 50.7199 12.4162C50.705 12.4001 50.6778 12.3921 50.6383 12.3921H50.5085C50.4677 12.3921 50.4398 12.4001 50.425 12.4162C50.4102 12.4323 50.4027 12.4607 50.4027 12.5015V13.4585C50.4027 13.4993 50.4102 13.5277 50.425 13.5438C50.4398 13.5599 50.4677 13.5679 50.5085 13.5679ZM51.8084 14C51.7775 14 51.7621 13.9845 51.7621 13.9536V12.0064C51.7621 11.9755 51.7775 11.96 51.8084 11.96H52.0903C52.1138 11.96 52.1342 11.9705 52.1515 11.9915L52.3333 12.2011L52.5354 11.9823C52.549 11.9674 52.5663 11.96 52.5873 11.96H52.7876C52.8185 11.96 52.834 11.9755 52.834 12.0064V12.4051C52.834 12.4249 52.8328 12.4385 52.8303 12.4459C52.8278 12.4521 52.821 12.4589 52.8099 12.4663L52.35 12.8057V13.9536C52.35 13.9845 52.3345 14 52.3036 14H51.8084Z" fill="white"/>
<path d="M67.2256 14C67.1947 14 67.1793 13.9845 67.1793 13.9536V11.5743C67.1793 11.5433 67.1947 11.5279 67.2256 11.5279H68.2308C68.2605 11.5279 68.2852 11.5359 68.305 11.552L68.7315 11.9748C68.7451 11.9872 68.7531 11.9977 68.7556 12.0064C68.7593 12.015 68.7612 12.0292 68.7612 12.049V12.5572C68.7612 12.5732 68.755 12.5875 68.7426 12.5998L68.5386 12.7983L68.3662 12.9466L68.5702 13.2174L68.7797 13.6662C68.7847 13.6773 68.7884 13.6884 68.7909 13.6996C68.7946 13.7095 68.7964 13.7218 68.7964 13.7367V13.9536C68.7964 13.9845 68.781 14 68.7501 14H68.2605C68.2333 14 68.2147 13.9876 68.2048 13.9629L67.9062 13.095H67.7671V13.9536C67.7671 13.9845 67.7517 14 67.7208 14H67.2256ZM67.9711 12.6406C68.0738 12.6406 68.1436 12.6196 68.1807 12.5776C68.2178 12.5343 68.2363 12.4539 68.2363 12.3365C68.2363 12.2178 68.2178 12.1374 68.1807 12.0954C68.1436 12.0521 68.0738 12.0305 67.9711 12.0305C67.8698 12.0305 67.7999 12.0521 67.7616 12.0954C67.7233 12.1374 67.7041 12.2178 67.7041 12.3365C67.7041 12.4539 67.7233 12.5343 67.7616 12.5776C67.7999 12.6196 67.8698 12.6406 67.9711 12.6406ZM69.5554 14C69.527 14 69.5022 13.9895 69.4812 13.9685L69.1103 13.5976C69.0893 13.5778 69.0788 13.5531 69.0788 13.5234V12.4366C69.0788 12.4069 69.0893 12.3822 69.1103 12.3624L69.4812 11.9915C69.5022 11.9705 69.527 11.96 69.5554 11.96H70.1173C70.147 11.96 70.1717 11.9705 70.1915 11.9915L70.5624 12.3624C70.5834 12.3822 70.5939 12.4069 70.5939 12.4366V13.5234C70.5939 13.5531 70.5834 13.5778 70.5624 13.5976L70.1915 13.9685C70.1717 13.9895 70.147 14 70.1173 14H69.5554ZM69.7724 13.5679H69.9022C69.9418 13.5679 69.969 13.5599 69.9838 13.5438C69.9986 13.5277 70.006 13.4993 70.006 13.4585V12.5015C70.006 12.4607 69.9986 12.4323 69.9838 12.4162C69.969 12.4001 69.9418 12.3921 69.9022 12.3921H69.7724C69.7316 12.3921 69.7038 12.4001 69.6889 12.4162C69.6741 12.4323 69.6667 12.4607 69.6667 12.5015V13.4585C69.6667 13.4993 69.6741 13.5277 69.6889 13.5438C69.7038 13.5599 69.7316 13.5679 69.7724 13.5679ZM71.0724 14C71.0414 14 71.026 13.9845 71.026 13.9536V11.5743C71.026 11.5433 71.0414 11.5279 71.0724 11.5279H71.5675C71.5984 11.5279 71.6139 11.5433 71.6139 11.5743V12.0843L71.7066 11.9915C71.7264 11.9705 71.7511 11.96 71.7808 11.96H72.0645C72.093 11.96 72.1177 11.9705 72.1387 11.9915L72.5096 12.3624C72.5306 12.3822 72.5412 12.4069 72.5412 12.4366V13.5234C72.5412 13.5531 72.5306 13.5778 72.5096 13.5976L72.1387 13.9685C72.1177 13.9895 72.093 14 72.0645 14H71.0724ZM71.6139 13.5679H71.8476C71.8884 13.5679 71.9162 13.5599 71.931 13.5438C71.9458 13.5277 71.9533 13.4993 71.9533 13.4585V12.5015C71.9533 12.4607 71.9458 12.4323 71.931 12.4162C71.9162 12.4001 71.8884 12.3921 71.8476 12.3921H71.7177C71.6782 12.3921 71.651 12.4001 71.6361 12.4162C71.6213 12.4323 71.6139 12.4607 71.6139 12.5015V13.5679ZM73.4383 14C73.4099 14 73.3852 13.9895 73.3642 13.9685L72.9933 13.5976C72.9722 13.5778 72.9617 13.5531 72.9617 13.5234V12.4366C72.9617 12.4069 72.9722 12.3822 72.9933 12.3624L73.3642 11.9915C73.3852 11.9705 73.4099 11.96 73.4383 11.96H74.0003C74.0299 11.96 74.0547 11.9705 74.0745 11.9915L74.4454 12.3624C74.4664 12.3822 74.4769 12.4069 74.4769 12.4366V13.5234C74.4769 13.5531 74.4664 13.5778 74.4454 13.5976L74.0745 13.9685C74.0547 13.9895 74.0299 14 74.0003 14H73.4383ZM73.6553 13.5679H73.7851C73.8247 13.5679 73.8519 13.5599 73.8667 13.5438C73.8816 13.5277 73.889 13.4993 73.889 13.4585V12.5015C73.889 12.4607 73.8816 12.4323 73.8667 12.4162C73.8519 12.4001 73.8247 12.3921 73.7851 12.3921H73.6553C73.6145 12.3921 73.5867 12.4001 73.5719 12.4162C73.557 12.4323 73.5496 12.4607 73.5496 12.5015V13.4585C73.5496 13.4993 73.557 13.5277 73.5719 13.5438C73.5867 13.5599 73.6145 13.5679 73.6553 13.5679ZM75.3856 14C75.3559 14 75.3312 13.9895 75.3114 13.9685L74.9405 13.5976C74.9195 13.5778 74.9089 13.5531 74.9089 13.5234V11.5743C74.9089 11.5433 74.9244 11.5279 74.9553 11.5279H75.4801C75.5111 11.5279 75.5265 11.5433 75.5265 11.5743V13.503H75.9419V11.5743C75.9419 11.5433 75.9574 11.5279 75.9883 11.5279H76.5131C76.544 11.5279 76.5595 11.5433 76.5595 11.5743V13.503H76.9731V11.5743C76.9731 11.5433 76.9885 11.5279 77.0194 11.5279H77.5461C77.577 11.5279 77.5925 11.5433 77.5925 11.5743V13.5234C77.5925 13.5531 77.582 13.5778 77.5609 13.5976L77.19 13.9685C77.169 13.9895 77.1443 14 77.1159 14H76.68C76.6516 14 76.6269 13.9895 76.6059 13.9685L76.2943 13.6569H76.2071L75.8956 13.9685C75.8745 13.9895 75.8498 14 75.8214 14H75.3856ZM78.5021 14C78.4737 14 78.449 13.9895 78.4279 13.9685L78.057 13.5976C78.036 13.5778 78.0255 13.5531 78.0255 13.5234V12.4366C78.0255 12.4069 78.036 12.3822 78.057 12.3624L78.4279 11.9915C78.449 11.9705 78.4737 11.96 78.5021 11.96H79.4943C79.5252 11.96 79.5407 11.9755 79.5407 12.0064V13.9536C79.5407 13.9845 79.5252 14 79.4943 14H79.1086C79.0925 14 79.0801 13.9969 79.0715 13.9907C79.0641 13.9845 79.0554 13.9771 79.0455 13.9685L78.9528 13.8757L78.8601 13.9685C78.8403 13.9895 78.8155 14 78.7859 14H78.5021ZM78.7191 13.5679H78.8489C78.8885 13.5679 78.9157 13.5599 78.9305 13.5438C78.9454 13.5277 78.9528 13.4993 78.9528 13.4585V12.3921H78.7191C78.6783 12.3921 78.6505 12.4001 78.6357 12.4162C78.6208 12.4323 78.6134 12.4607 78.6134 12.5015V13.4585C78.6134 13.4993 78.6208 13.5277 78.6357 13.5438C78.6505 13.5599 78.6783 13.5679 78.7191 13.5679ZM80.0191 14C79.9882 14 79.9727 13.9845 79.9727 13.9536V12.0064C79.9727 11.9755 79.9882 11.96 80.0191 11.96H80.301C80.3245 11.96 80.3449 11.9705 80.3622 11.9915L80.5439 12.2011L80.7461 11.9823C80.7597 11.9674 80.777 11.96 80.798 11.96H80.9983C81.0292 11.96 81.0447 11.9755 81.0447 12.0064V12.4051C81.0447 12.4249 81.0434 12.4385 81.0409 12.4459C81.0385 12.4521 81.0317 12.4589 81.0205 12.4663L80.5606 12.8057V13.9536C80.5606 13.9845 80.5452 14 80.5143 14H80.0191ZM63.6792 19C63.6483 19 63.6329 18.9845 63.6329 18.9536V17.2345C63.6329 17.2184 63.639 17.1999 63.6514 17.1788L64.0909 16.5557C64.1045 16.5372 64.1243 16.5279 64.1503 16.5279H64.7641C64.7913 16.5279 64.8111 16.5372 64.8235 16.5557L65.2649 17.1788C65.2772 17.1961 65.2834 17.2147 65.2834 17.2345V18.9536C65.2834 18.9845 65.2679 19 65.237 19H64.7122C64.6813 19 64.6658 18.9845 64.6658 18.9536V18.1655H64.2523V18.9536C64.2523 18.9845 64.2368 19 64.2059 19H63.6792ZM64.4581 17.7667C64.5719 17.7667 64.6485 17.742 64.6881 17.6925C64.7289 17.6419 64.7493 17.546 64.7493 17.4051C64.7493 17.2641 64.7289 17.1689 64.6881 17.1195C64.6485 17.0688 64.5719 17.0435 64.4581 17.0435C64.3456 17.0435 64.269 17.0688 64.2282 17.1195C64.1886 17.1689 64.1688 17.2641 64.1688 17.4051C64.1688 17.546 64.1886 17.6419 64.2282 17.6925C64.269 17.742 64.3456 17.7667 64.4581 17.7667ZM65.7641 19C65.7332 19 65.7177 18.9845 65.7177 18.9536V17.0064C65.7177 16.9755 65.7332 16.96 65.7641 16.96H66.046C66.0695 16.96 66.0899 16.9705 66.1072 16.9915L66.2889 17.2011L66.4911 16.9823C66.5047 16.9674 66.522 16.96 66.543 16.96H66.7433C66.7742 16.96 66.7896 16.9755 66.7896 17.0064V17.4051C66.7896 17.4249 66.7884 17.4385 66.7859 17.4459C66.7835 17.4521 66.7767 17.4589 66.7655 17.4663L66.3056 17.8057V18.9536C66.3056 18.9845 66.2902 19 66.2592 19H65.7641ZM67.8417 19C67.8293 19 67.8157 18.9981 67.8009 18.9944C67.7873 18.9907 67.7743 18.9876 67.7619 18.9852L67.4318 18.9036L67.0535 18.7775C67.0164 18.7651 66.9978 18.7292 66.9978 18.6699V17.4366C66.9978 17.4069 67.0084 17.3822 67.0294 17.3624L67.4003 16.9915C67.4213 16.9705 67.446 16.96 67.4745 16.96H68.0679C68.0964 16.96 68.1211 16.9705 68.1421 16.9915L68.513 17.3624C68.534 17.3822 68.5445 17.4069 68.5445 17.4366V18.197H67.5486L67.5357 18.4436L67.799 18.5308L68.2719 18.5642C68.2929 18.5679 68.3034 18.5821 68.3034 18.6068V18.9536C68.3034 18.9845 68.288 19 68.2571 19H67.8417ZM67.7675 17.9058H67.8027C67.8633 17.9058 67.9115 17.8829 67.9474 17.8372C67.9845 17.7915 68.003 17.7296 68.003 17.6517V17.6147C68.003 17.538 67.9845 17.4768 67.9474 17.4311C67.9115 17.3853 67.8633 17.3624 67.8027 17.3624H67.7656C67.7063 17.3624 67.6587 17.3853 67.6228 17.4311C67.5882 17.4768 67.5709 17.538 67.5709 17.6147V17.6517C67.5709 17.7296 67.5882 17.7915 67.6228 17.8372C67.6587 17.8829 67.7069 17.9058 67.7675 17.9058ZM68.9769 19C68.946 19 68.9306 18.9845 68.9306 18.9536V17.0064C68.9306 16.9755 68.946 16.96 68.9769 16.96H69.9691C69.9976 16.96 70.0223 16.9705 70.0433 16.9915L70.4142 17.3624C70.4352 17.3822 70.4457 17.4069 70.4457 17.4366V18.9536C70.4457 18.9845 70.4303 19 70.3994 19H69.9042C69.8733 19 69.8578 18.9845 69.8578 18.9536V17.5108C69.8578 17.4527 69.8288 17.4236 69.7707 17.4236H69.5185V18.9536C69.5185 18.9845 69.503 19 69.4721 19H68.9769ZM71.3429 19C71.3145 19 71.2898 18.9895 71.2687 18.9685L70.8978 18.5976C70.8768 18.5778 70.8663 18.5531 70.8663 18.5234V17.4366C70.8663 17.4069 70.8768 17.3822 70.8978 17.3624L71.2687 16.9915C71.2898 16.9705 71.3145 16.96 71.3429 16.96H72.3351C72.366 16.96 72.3815 16.9755 72.3815 17.0064V18.9536C72.3815 18.9845 72.366 19 72.3351 19H71.9494C71.9333 19 71.9209 18.9969 71.9123 18.9907C71.9049 18.9845 71.8962 18.9771 71.8863 18.9685L71.7936 18.8757L71.7009 18.9685C71.6811 18.9895 71.6563 19 71.6267 19H71.3429ZM71.5599 18.5679H71.6897C71.7293 18.5679 71.7565 18.5599 71.7713 18.5438C71.7862 18.5277 71.7936 18.4993 71.7936 18.4585V17.3921H71.5599C71.5191 17.3921 71.4913 17.4001 71.4765 17.4162C71.4616 17.4323 71.4542 17.4607 71.4542 17.5015V18.4585C71.4542 18.4993 71.4616 18.5277 71.4765 18.5438C71.4913 18.5599 71.5191 18.5679 71.5599 18.5679ZM73.4503 19C73.4194 19 73.4039 18.9845 73.4039 18.9536V16.5743C73.4039 16.5433 73.4194 16.5279 73.4503 16.5279H74.4759C74.5055 16.5279 74.5303 16.5378 74.55 16.5576L74.921 16.9285C74.942 16.9495 74.9525 16.9742 74.9525 17.0027V17.6425C74.9525 17.6721 74.942 17.6969 74.921 17.7167L74.55 18.0876C74.5303 18.1086 74.5055 18.1191 74.4759 18.1191H74.0215V18.9536C74.0215 18.9845 74.006 19 73.9751 19H73.4503ZM74.1606 17.6147C74.2632 17.6147 74.3331 17.5943 74.3702 17.5535C74.4085 17.5127 74.4276 17.4354 74.4276 17.3216C74.4276 17.2079 74.4085 17.1306 74.3702 17.0898C74.3331 17.049 74.2632 17.0286 74.1606 17.0286C74.0592 17.0286 73.9894 17.049 73.951 17.0898C73.9139 17.1306 73.8954 17.2079 73.8954 17.3216C73.8954 17.4354 73.9139 17.5127 73.951 17.5535C73.9894 17.5943 74.0592 17.6147 74.1606 17.6147ZM75.7149 19C75.6864 19 75.6617 18.9895 75.6407 18.9685L75.2698 18.5976C75.2488 18.5778 75.2383 18.5531 75.2383 18.5234V17.4366C75.2383 17.4069 75.2488 17.3822 75.2698 17.3624L75.6407 16.9915C75.6617 16.9705 75.6864 16.96 75.7149 16.96H76.7071C76.738 16.96 76.7534 16.9755 76.7534 17.0064V18.9536C76.7534 18.9845 76.738 19 76.7071 19H76.3213C76.3052 19 76.2929 18.9969 76.2842 18.9907C76.2768 18.9845 76.2681 18.9771 76.2583 18.9685L76.1655 18.8757L76.0728 18.9685C76.053 18.9895 76.0283 19 75.9986 19H75.7149ZM75.9319 18.5679H76.0617C76.1012 18.5679 76.1284 18.5599 76.1433 18.5438C76.1581 18.5277 76.1655 18.4993 76.1655 18.4585V17.3921H75.9319C75.8911 17.3921 75.8632 17.4001 75.8484 17.4162C75.8336 17.4323 75.8261 17.4607 75.8261 17.5015V18.4585C75.8261 18.4993 75.8336 18.5277 75.8484 18.5438C75.8632 18.5599 75.8911 18.5679 75.9319 18.5679ZM77.2318 19C77.2009 19 77.1855 18.9845 77.1855 18.9536V17.0064C77.1855 16.9755 77.2009 16.96 77.2318 16.96H77.5137C77.5372 16.96 77.5576 16.9705 77.5749 16.9915L77.7567 17.2011L77.9588 16.9823C77.9724 16.9674 77.9897 16.96 78.0107 16.96H78.211C78.2419 16.96 78.2574 16.9755 78.2574 17.0064V17.4051C78.2574 17.4249 78.2562 17.4385 78.2537 17.4459C78.2512 17.4521 78.2444 17.4589 78.2333 17.4663L77.7734 17.8057V18.9536C77.7734 18.9845 77.7579 19 77.727 19H77.2318ZM78.9051 19C78.8767 19 78.852 18.9895 78.8309 18.9685L78.5212 18.6606C78.5015 18.6396 78.4916 18.6149 78.4916 18.5864V17.3921H78.4137C78.3828 17.3921 78.3673 17.3767 78.3673 17.3457V17.0064C78.3673 16.9755 78.3828 16.96 78.4137 16.96H78.4916V16.7282C78.4916 16.6973 78.507 16.6818 78.5379 16.6818H79.0312C79.0621 16.6818 79.0776 16.6973 79.0776 16.7282V16.96H79.2575C79.2884 16.96 79.3039 16.9755 79.3039 17.0064V17.3457C79.3039 17.3767 79.2884 17.3921 79.2575 17.3921H79.0776V18.3824C79.0776 18.4059 79.085 18.4251 79.0999 18.4399L79.2816 18.6235C79.294 18.6347 79.3001 18.6532 79.3001 18.6792V18.9536C79.3001 18.9845 79.2847 19 79.2538 19H78.9051ZM79.684 19C79.6531 19 79.6377 18.9845 79.6377 18.9536V17.0064C79.6377 16.9755 79.6531 16.96 79.684 16.96H80.6762C80.7047 16.96 80.7294 16.9705 80.7504 16.9915L81.1213 17.3624C81.1423 17.3822 81.1528 17.4069 81.1528 17.4366V18.9536C81.1528 18.9845 81.1374 19 81.1065 19H80.6113C80.5804 19 80.5649 18.9845 80.5649 18.9536V17.5108C80.5649 17.4527 80.5359 17.4236 80.4778 17.4236H80.2256V18.9536C80.2256 18.9845 80.2101 19 80.1792 19H79.684ZM82.4172 19C82.4049 19 82.3913 18.9981 82.3764 18.9944C82.3628 18.9907 82.3498 18.9876 82.3375 18.9852L82.0074 18.9036L81.629 18.7775C81.592 18.7651 81.5734 18.7292 81.5734 18.6699V17.4366C81.5734 17.4069 81.5839 17.3822 81.6049 17.3624L81.9758 16.9915C81.9969 16.9705 82.0216 16.96 82.05 16.96H82.6435C82.6719 16.96 82.6966 16.9705 82.7177 16.9915L83.0886 17.3624C83.1096 17.3822 83.1201 17.4069 83.1201 17.4366V18.197H82.1242L82.1112 18.4436L82.3746 18.5308L82.8475 18.5642C82.8685 18.5679 82.879 18.5821 82.879 18.6068V18.9536C82.879 18.9845 82.8636 19 82.8326 19H82.4172ZM82.343 17.9058H82.3783C82.4389 17.9058 82.4871 17.8829 82.5229 17.8372C82.56 17.7915 82.5786 17.7296 82.5786 17.6517V17.6147C82.5786 17.538 82.56 17.4768 82.5229 17.4311C82.4871 17.3853 82.4389 17.3624 82.3783 17.3624H82.3412C82.2818 17.3624 82.2342 17.3853 82.1984 17.4311C82.1638 17.4768 82.1465 17.538 82.1465 17.6147V17.6517C82.1465 17.7296 82.1638 17.7915 82.1984 17.8372C82.2342 17.8829 82.2825 17.9058 82.343 17.9058ZM83.5525 19C83.5216 19 83.5061 18.9845 83.5061 18.9536V17.0064C83.5061 16.9755 83.5216 16.96 83.5525 16.96H83.8344C83.8579 16.96 83.8783 16.9705 83.8956 16.9915L84.0773 17.2011L84.2795 16.9823C84.2931 16.9674 84.3104 16.96 84.3314 16.96H84.5317C84.5626 16.96 84.5781 16.9755 84.5781 17.0064V17.4051C84.5781 17.4249 84.5768 17.4385 84.5744 17.4459C84.5719 17.4521 84.5651 17.4589 84.554 17.4663L84.094 17.8057V18.9536C84.094 18.9845 84.0786 19 84.0477 19H83.5525Z" fill="white"/>
<path d="M92.2111 14C92.1802 14 92.1647 13.9845 92.1647 13.9536V11.5743C92.1647 11.5433 92.1802 11.5279 92.2111 11.5279H92.7359C92.7668 11.5279 92.7823 11.5433 92.7823 11.5743V13.9536C92.7823 13.9845 92.7668 14 92.7359 14H92.2111ZM93.2724 14C93.2414 14 93.226 13.9845 93.226 13.9536V12.0064C93.226 11.9755 93.2414 11.96 93.2724 11.96H94.2645C94.293 11.96 94.3177 11.9705 94.3387 11.9915L94.7096 12.3624C94.7306 12.3822 94.7412 12.4069 94.7412 12.4366V13.9536C94.7412 13.9845 94.7257 14 94.6948 14H94.1996C94.1687 14 94.1533 13.9845 94.1533 13.9536V12.5108C94.1533 12.4527 94.1242 12.4236 94.0661 12.4236H93.8139V13.9536C93.8139 13.9845 93.7984 14 93.7675 14H93.2724ZM95.6383 14C95.6099 14 95.5852 13.9895 95.5642 13.9685L95.1933 13.5976C95.1722 13.5778 95.1617 13.5531 95.1617 13.5234V12.4366C95.1617 12.4069 95.1722 12.3822 95.1933 12.3624L95.5642 11.9915C95.5852 11.9705 95.6099 11.96 95.6383 11.96H95.9221C95.9518 11.96 95.9765 11.9705 95.9963 11.9915L96.089 12.0843V11.5743C96.089 11.5433 96.1045 11.5279 96.1354 11.5279H96.6305C96.6614 11.5279 96.6769 11.5433 96.6769 11.5743V13.9536C96.6769 13.9845 96.6614 14 96.6305 14H96.2448C96.2287 14 96.2163 13.9969 96.2077 13.9907C96.2003 13.9845 96.1916 13.9771 96.1817 13.9685L96.089 13.8757L95.9963 13.9685C95.9765 13.9895 95.9518 14 95.9221 14H95.6383ZM95.8553 13.5679H95.9851C96.0247 13.5679 96.0519 13.5599 96.0667 13.5438C96.0816 13.5277 96.089 13.4993 96.089 13.4585V12.3921H95.8553C95.8145 12.3921 95.7867 12.4001 95.7719 12.4162C95.757 12.4323 95.7496 12.4607 95.7496 12.5015V13.4585C95.7496 13.4993 95.757 13.5277 95.7719 13.5438C95.7867 13.5599 95.8145 13.5679 95.8553 13.5679ZM97.5856 14C97.5559 14 97.5312 13.9895 97.5114 13.9685L97.1405 13.5976C97.1195 13.5778 97.1089 13.5531 97.1089 13.5234V12.0064C97.1089 11.9755 97.1244 11.96 97.1553 11.96H97.6505C97.6814 11.96 97.6968 11.9755 97.6968 12.0064V13.4492C97.6968 13.5073 97.7253 13.5364 97.7821 13.5364H98.0362V12.0064C98.0362 11.9755 98.0517 11.96 98.0826 11.96H98.5777C98.6087 11.96 98.6241 11.9755 98.6241 12.0064V13.9536C98.6241 13.9845 98.6087 14 98.5777 14H97.5856ZM99.0465 14C99.0156 14 99.0002 13.9845 99.0002 13.9536V13.6532C99.0002 13.6248 99.0094 13.6062 99.028 13.5976L99.4063 13.3732V13.1803L99.028 12.9763C99.0094 12.9652 99.0002 12.946 99.0002 12.9188V12.3272C99.0002 12.3136 99.002 12.3025 99.0057 12.2938C99.0107 12.2852 99.0175 12.2777 99.0261 12.2716L99.4212 11.9823C99.4348 11.9724 99.4459 11.9662 99.4545 11.9637C99.4632 11.9612 99.4718 11.96 99.4805 11.96H99.9312C99.9621 11.96 99.9775 11.9755 99.9775 12.0064V12.2975C99.9775 12.3185 99.9757 12.3328 99.972 12.3402C99.9695 12.3476 99.9633 12.3538 99.9534 12.3587L99.6029 12.5479V12.763L99.9775 12.9485C99.9985 12.9571 100.009 12.9757 100.009 13.0041V13.5735C100.009 13.6044 99.9985 13.6291 99.9775 13.6476L99.5825 13.9759C99.5627 13.992 99.538 14 99.5083 14H99.0465ZM100.824 14C100.796 14 100.771 13.9895 100.75 13.9685L100.441 13.6606C100.421 13.6396 100.411 13.6149 100.411 13.5864V12.3921H100.333C100.302 12.3921 100.287 12.3767 100.287 12.3457V12.0064C100.287 11.9755 100.302 11.96 100.333 11.96H100.411V11.7282C100.411 11.6973 100.426 11.6818 100.457 11.6818H100.951C100.981 11.6818 100.997 11.6973 100.997 11.7282V11.96H101.177C101.208 11.96 101.223 11.9755 101.223 12.0064V12.3457C101.223 12.3767 101.208 12.3921 101.177 12.3921H100.997V13.3824C100.997 13.4059 101.004 13.4251 101.019 13.4399L101.201 13.6235C101.213 13.6347 101.219 13.6532 101.219 13.6792V13.9536C101.219 13.9845 101.204 14 101.173 14H100.824ZM101.603 14C101.572 14 101.557 13.9845 101.557 13.9536V12.0064C101.557 11.9755 101.572 11.96 101.603 11.96H101.885C101.909 11.96 101.929 11.9705 101.946 11.9915L102.128 12.2011L102.33 11.9823C102.344 11.9674 102.361 11.96 102.382 11.96H102.583C102.613 11.96 102.629 11.9755 102.629 12.0064V12.4051C102.629 12.4249 102.628 12.4385 102.625 12.4459C102.623 12.4521 102.616 12.4589 102.605 12.4663L102.145 12.8057V13.9536C102.145 13.9845 102.129 14 102.098 14H101.603ZM103.384 14.6176C103.353 14.6176 103.338 14.6021 103.338 14.5712V14.2819C103.338 14.2584 103.347 14.2448 103.366 14.2411L103.638 14.1725L103.829 14.0705C103.848 14.0606 103.857 14.0414 103.857 14.013V13.7088L103.685 13.8702C103.664 13.8912 103.639 13.9017 103.61 13.9017L103.295 13.9128C103.267 13.9128 103.242 13.9029 103.221 13.8832L102.882 13.5419C102.861 13.5221 102.85 13.4974 102.85 13.4677V12.0064C102.85 11.9755 102.866 11.96 102.896 11.96H103.392C103.423 11.96 103.438 11.9755 103.438 12.0064V13.4028C103.438 13.4436 103.445 13.4721 103.46 13.4881C103.475 13.5042 103.502 13.5123 103.542 13.5123H103.777V12.0064C103.777 11.9755 103.793 11.96 103.824 11.96H104.319C104.35 11.96 104.365 11.9755 104.365 12.0064V14.2355C104.365 14.2726 104.355 14.2973 104.334 14.3097L104.087 14.4673L103.774 14.5972C103.755 14.6046 103.741 14.6095 103.731 14.612C103.722 14.6157 103.708 14.6176 103.688 14.6176H103.384ZM105.423 14C105.392 14 105.376 13.9845 105.376 13.9536V12.2345C105.376 12.2184 105.382 12.1999 105.395 12.1788L105.834 11.5557C105.848 11.5372 105.868 11.5279 105.894 11.5279H106.507C106.535 11.5279 106.554 11.5372 106.567 11.5557L107.008 12.1788C107.021 12.1961 107.027 12.2147 107.027 12.2345V13.9536C107.027 13.9845 107.011 14 106.98 14H106.456C106.425 14 106.409 13.9845 106.409 13.9536V13.1655H105.996V13.9536C105.996 13.9845 105.98 14 105.949 14H105.423ZM106.201 12.7667C106.315 12.7667 106.392 12.742 106.431 12.6925C106.472 12.6419 106.493 12.546 106.493 12.4051C106.493 12.2641 106.472 12.1689 106.431 12.1195C106.392 12.0688 106.315 12.0435 106.201 12.0435C106.089 12.0435 106.012 12.0688 105.972 12.1195C105.932 12.1689 105.912 12.2641 105.912 12.4051C105.912 12.546 105.932 12.6419 105.972 12.6925C106.012 12.742 106.089 12.7667 106.201 12.7667ZM108.064 14C108.039 14 108.014 13.992 107.99 13.9759L107.687 13.7719L107.48 13.4381C107.471 13.422 107.464 13.4115 107.457 13.4065C107.451 13.4004 107.448 13.388 107.448 13.3695V12.5905C107.448 12.572 107.451 12.5596 107.456 12.5535C107.46 12.5473 107.468 12.5361 107.48 12.5201L107.669 12.2048L107.99 11.9841C108.001 11.9767 108.012 11.9711 108.023 11.9674C108.034 11.9625 108.048 11.96 108.064 11.96H108.385C108.416 11.96 108.431 11.9755 108.431 12.0064V12.3532C108.431 12.3631 108.43 12.3736 108.427 12.3847C108.426 12.3958 108.42 12.4045 108.411 12.4107L108.199 12.5164L108.036 12.7296V13.2248L108.208 13.4214L108.411 13.5493C108.423 13.5568 108.429 13.566 108.429 13.5772C108.43 13.5871 108.431 13.5969 108.431 13.6068V13.9536C108.431 13.9845 108.416 14 108.385 14H108.064ZM109.265 14C109.236 14 109.212 13.9895 109.191 13.9685L108.82 13.5976C108.799 13.5778 108.788 13.5531 108.788 13.5234V12.4366C108.788 12.4069 108.799 12.3822 108.82 12.3624L109.191 11.9915C109.212 11.9705 109.236 11.96 109.265 11.96H110.257C110.288 11.96 110.303 11.9755 110.303 12.0064V13.9536C110.303 13.9845 110.288 14 110.257 14H109.871C109.855 14 109.843 13.9969 109.834 13.9907C109.827 13.9845 109.818 13.9771 109.808 13.9685L109.716 13.8757L109.623 13.9685C109.603 13.9895 109.578 14 109.549 14H109.265ZM109.482 13.5679H109.612C109.651 13.5679 109.678 13.5599 109.693 13.5438C109.708 13.5277 109.716 13.4993 109.716 13.4585V12.3921H109.482C109.441 12.3921 109.413 12.4001 109.398 12.4162C109.384 12.4323 109.376 12.4607 109.376 12.5015V13.4585C109.376 13.4993 109.384 13.5277 109.398 13.5438C109.413 13.5599 109.441 13.5679 109.482 13.5679ZM111.199 14C111.171 14 111.146 13.9895 111.125 13.9685L110.754 13.5976C110.733 13.5778 110.723 13.5531 110.723 13.5234V12.4366C110.723 12.4069 110.733 12.3822 110.754 12.3624L111.125 11.9915C111.146 11.9705 111.171 11.96 111.199 11.96H111.483C111.513 11.96 111.537 11.9705 111.557 11.9915L111.65 12.0843V11.5743C111.65 11.5433 111.665 11.5279 111.696 11.5279H112.191C112.222 11.5279 112.238 11.5433 112.238 11.5743V13.9536C112.238 13.9845 112.222 14 112.191 14H111.806C111.79 14 111.777 13.9969 111.768 13.9907C111.761 13.9845 111.752 13.9771 111.743 13.9685L111.65 13.8757L111.557 13.9685C111.537 13.9895 111.513 14 111.483 14H111.199ZM111.416 13.5679H111.546C111.586 13.5679 111.613 13.5599 111.628 13.5438C111.642 13.5277 111.65 13.4993 111.65 13.4585V12.3921H111.416C111.375 12.3921 111.348 12.4001 111.333 12.4162C111.318 12.4323 111.31 12.4607 111.31 12.5015V13.4585C111.31 13.4993 111.318 13.5277 111.333 13.5438C111.348 13.5599 111.375 13.5679 111.416 13.5679ZM113.501 14C113.488 14 113.475 13.9981 113.46 13.9944C113.446 13.9907 113.433 13.9876 113.421 13.9852L113.091 13.9036L112.712 13.7775C112.675 13.7651 112.657 13.7292 112.657 13.6699V12.4366C112.657 12.4069 112.667 12.3822 112.688 12.3624L113.059 11.9915C113.08 11.9705 113.105 11.96 113.133 11.96H113.727C113.755 11.96 113.78 11.9705 113.801 11.9915L114.172 12.3624C114.193 12.3822 114.203 12.4069 114.203 12.4366V13.197H113.208L113.195 13.4436L113.458 13.5308L113.931 13.5642C113.952 13.5679 113.962 13.5821 113.962 13.6068V13.9536C113.962 13.9845 113.947 14 113.916 14H113.501ZM113.426 12.9058H113.462C113.522 12.9058 113.57 12.8829 113.606 12.8372C113.643 12.7915 113.662 12.7296 113.662 12.6517V12.6147C113.662 12.538 113.643 12.4768 113.606 12.4311C113.57 12.3853 113.522 12.3624 113.462 12.3624H113.425C113.365 12.3624 113.318 12.3853 113.282 12.4311C113.247 12.4768 113.23 12.538 113.23 12.6147V12.6517C113.23 12.7296 113.247 12.7915 113.282 12.8372C113.318 12.8829 113.366 12.9058 113.426 12.9058ZM114.636 14C114.605 14 114.589 13.9845 114.589 13.9536V12.0064C114.589 11.9755 114.605 11.96 114.636 11.96H115.48C115.508 11.96 115.533 11.9705 115.554 11.9915L115.782 12.2196H115.851L116.079 11.9915C116.1 11.9705 116.124 11.96 116.153 11.96H116.555C116.584 11.96 116.608 11.9705 116.629 11.9915L117 12.3624C117.021 12.3822 117.032 12.4069 117.032 12.4366V13.9536C117.032 13.9845 117.016 14 116.986 14H116.49C116.459 14 116.444 13.9845 116.444 13.9536V12.5015C116.444 12.4496 116.418 12.4236 116.366 12.4236H116.105V13.9536C116.105 13.9845 116.089 14 116.058 14H115.563C115.532 14 115.517 13.9845 115.517 13.9536V12.5015C115.517 12.4496 115.491 12.4236 115.439 12.4236H115.177V13.9536C115.177 13.9845 115.162 14 115.131 14H114.636ZM117.512 14C117.481 14 117.465 13.9845 117.465 13.9536V12.0064C117.465 11.9755 117.481 11.96 117.512 11.96H118.005C118.036 11.96 118.052 11.9755 118.052 12.0064V13.9536C118.052 13.9845 118.036 14 118.005 14H117.512ZM117.503 11.8061C117.478 11.8061 117.465 11.7937 117.465 11.769V11.5335C117.465 11.5087 117.478 11.4964 117.503 11.4964H118.018C118.04 11.4964 118.052 11.5087 118.052 11.5335V11.769C118.052 11.7937 118.04 11.8061 118.018 11.8061H117.503ZM118.947 14C118.919 14 118.894 13.9895 118.873 13.9685L118.502 13.5976C118.481 13.5778 118.47 13.5531 118.47 13.5234V12.4366C118.47 12.4069 118.481 12.3822 118.502 12.3624L118.873 11.9915C118.894 11.9705 118.919 11.96 118.947 11.96H119.939C119.97 11.96 119.985 11.9755 119.985 12.0064V13.9536C119.985 13.9845 119.97 14 119.939 14H119.553C119.537 14 119.525 13.9969 119.516 13.9907C119.509 13.9845 119.5 13.9771 119.49 13.9685L119.398 13.8757L119.305 13.9685C119.285 13.9895 119.26 14 119.231 14H118.947ZM119.164 13.5679H119.294C119.333 13.5679 119.361 13.5599 119.375 13.5438C119.39 13.5277 119.398 13.4993 119.398 13.4585V12.3921H119.164C119.123 12.3921 119.095 12.4001 119.08 12.4162C119.066 12.4323 119.058 12.4607 119.058 12.5015V13.4585C119.058 13.4993 119.066 13.5277 119.08 13.5438C119.095 13.5599 119.123 13.5679 119.164 13.5679ZM120.869 13.0579C120.838 13.0579 120.822 13.0424 120.822 13.0115V12.5164C120.822 12.4855 120.838 12.47 120.869 12.47H121.815C121.846 12.47 121.861 12.4855 121.861 12.5164V13.0115C121.861 13.0424 121.846 13.0579 121.815 13.0579H120.869ZM122.757 14C122.726 14 122.71 13.9845 122.71 13.9536V11.9415C122.71 11.913 122.721 11.8883 122.742 11.8673L123.05 11.5576C123.071 11.5378 123.095 11.5279 123.124 11.5279H123.549C123.577 11.5279 123.602 11.5378 123.623 11.5576L123.934 11.871H124.022L124.333 11.5576C124.354 11.5378 124.379 11.5279 124.407 11.5279H124.83C124.86 11.5279 124.885 11.5378 124.904 11.5576L125.214 11.8673C125.235 11.8883 125.246 11.913 125.246 11.9415V13.9536C125.246 13.9845 125.23 14 125.199 14H124.672C124.642 14 124.626 13.9845 124.626 13.9536V12.0212H124.287V13.9536C124.287 13.9845 124.271 14 124.24 14H123.716C123.685 14 123.669 13.9845 123.669 13.9536V12.0212H123.328V13.9536C123.328 13.9845 123.312 14 123.282 14H122.757ZM126.522 14C126.51 14 126.496 13.9981 126.481 13.9944C126.468 13.9907 126.455 13.9876 126.442 13.9852L126.112 13.9036L125.734 13.7775C125.697 13.7651 125.678 13.7292 125.678 13.6699V12.4366C125.678 12.4069 125.689 12.3822 125.71 12.3624L126.081 11.9915C126.102 11.9705 126.127 11.96 126.155 11.96H126.748C126.777 11.96 126.802 11.9705 126.823 11.9915L127.194 12.3624C127.215 12.3822 127.225 12.4069 127.225 12.4366V13.197H126.229L126.216 13.4436L126.48 13.5308L126.952 13.5642C126.974 13.5679 126.984 13.5821 126.984 13.6068V13.9536C126.984 13.9845 126.969 14 126.938 14H126.522ZM126.448 12.9058H126.483C126.544 12.9058 126.592 12.8829 126.628 12.8372C126.665 12.7915 126.684 12.7296 126.684 12.6517V12.6147C126.684 12.538 126.665 12.4768 126.628 12.4311C126.592 12.3853 126.544 12.3624 126.483 12.3624H126.446C126.387 12.3624 126.339 12.3853 126.303 12.4311C126.269 12.4768 126.251 12.538 126.251 12.6147V12.6517C126.251 12.7296 126.269 12.7915 126.303 12.8372C126.339 12.8829 126.387 12.9058 126.448 12.9058ZM128.442 14C128.43 14 128.416 13.9981 128.401 13.9944C128.388 13.9907 128.375 13.9876 128.362 13.9852L128.032 13.9036L127.654 13.7775C127.617 13.7651 127.598 13.7292 127.598 13.6699V12.4366C127.598 12.4069 127.609 12.3822 127.63 12.3624L128.001 11.9915C128.022 11.9705 128.046 11.96 128.075 11.96H128.668C128.697 11.96 128.721 11.9705 128.742 11.9915L129.113 12.3624C129.134 12.3822 129.145 12.4069 129.145 12.4366V13.197H128.149L128.136 13.4436L128.399 13.5308L128.872 13.5642C128.893 13.5679 128.904 13.5821 128.904 13.6068V13.9536C128.904 13.9845 128.888 14 128.857 14H128.442ZM128.368 12.9058H128.403C128.464 12.9058 128.512 12.8829 128.548 12.8372C128.585 12.7915 128.603 12.7296 128.603 12.6517V12.6147C128.603 12.538 128.585 12.4768 128.548 12.4311C128.512 12.3853 128.464 12.3624 128.403 12.3624H128.366C128.307 12.3624 128.259 12.3853 128.223 12.4311C128.189 12.4768 128.171 12.538 128.171 12.6147V12.6517C128.171 12.7296 128.189 12.7915 128.223 12.8372C128.259 12.8829 128.307 12.9058 128.368 12.9058ZM129.957 14C129.929 14 129.904 13.9895 129.883 13.9685L129.574 13.6606C129.554 13.6396 129.544 13.6149 129.544 13.5864V12.3921H129.466C129.435 12.3921 129.42 12.3767 129.42 12.3457V12.0064C129.42 11.9755 129.435 11.96 129.466 11.96H129.544V11.7282C129.544 11.6973 129.559 11.6818 129.59 11.6818H130.084C130.114 11.6818 130.13 11.6973 130.13 11.7282V11.96H130.31C130.341 11.96 130.356 11.9755 130.356 12.0064V12.3457C130.356 12.3767 130.341 12.3921 130.31 12.3921H130.13V13.3824C130.13 13.4059 130.137 13.4251 130.152 13.4399L130.334 13.6235C130.346 13.6347 130.352 13.6532 130.352 13.6792V13.9536C130.352 13.9845 130.337 14 130.306 14H129.957ZM106.071 19C106.04 19 106.025 18.9845 106.025 18.9536V16.5743C106.025 16.5433 106.04 16.5279 106.071 16.5279H107.097C107.126 16.5279 107.151 16.5378 107.171 16.5576L107.542 16.9285C107.563 16.9495 107.573 16.9742 107.573 17.0027V17.6425C107.573 17.6721 107.563 17.6969 107.542 17.7167L107.171 18.0876C107.151 18.1086 107.126 18.1191 107.097 18.1191H106.642V18.9536C106.642 18.9845 106.627 19 106.596 19H106.071ZM106.782 17.6147C106.884 17.6147 106.954 17.5943 106.991 17.5535C107.029 17.5127 107.049 17.4354 107.049 17.3216C107.049 17.2079 107.029 17.1306 106.991 17.0898C106.954 17.049 106.884 17.0286 106.782 17.0286C106.68 17.0286 106.61 17.049 106.572 17.0898C106.535 17.1306 106.516 17.2079 106.516 17.3216C106.516 17.4354 106.535 17.5127 106.572 17.5535C106.61 17.5943 106.68 17.6147 106.782 17.6147ZM108.336 19C108.307 19 108.283 18.9895 108.262 18.9685L107.891 18.5976C107.87 18.5778 107.859 18.5531 107.859 18.5234V17.4366C107.859 17.4069 107.87 17.3822 107.891 17.3624L108.262 16.9915C108.283 16.9705 108.307 16.96 108.336 16.96H109.328C109.359 16.96 109.374 16.9755 109.374 17.0064V18.9536C109.374 18.9845 109.359 19 109.328 19H108.942C108.926 19 108.914 18.9969 108.905 18.9907C108.898 18.9845 108.889 18.9771 108.879 18.9685L108.786 18.8757L108.694 18.9685C108.674 18.9895 108.649 19 108.62 19H108.336ZM108.553 18.5679H108.683C108.722 18.5679 108.749 18.5599 108.764 18.5438C108.779 18.5277 108.786 18.4993 108.786 18.4585V17.3921H108.553C108.512 17.3921 108.484 17.4001 108.469 17.4162C108.455 17.4323 108.447 17.4607 108.447 17.5015V18.4585C108.447 18.4993 108.455 18.5277 108.469 18.5438C108.484 18.5599 108.512 18.5679 108.553 18.5679ZM109.853 19C109.822 19 109.806 18.9845 109.806 18.9536V17.0064C109.806 16.9755 109.822 16.96 109.853 16.96H110.135C110.158 16.96 110.179 16.9705 110.196 16.9915L110.378 17.2011L110.58 16.9823C110.593 16.9674 110.611 16.96 110.632 16.96H110.832C110.863 16.96 110.878 16.9755 110.878 17.0064V17.4051C110.878 17.4249 110.877 17.4385 110.875 17.4459C110.872 17.4521 110.865 17.4589 110.854 17.4663L110.394 17.8057V18.9536C110.394 18.9845 110.379 19 110.348 19H109.853ZM111.526 19C111.498 19 111.473 18.9895 111.452 18.9685L111.142 18.6606C111.122 18.6396 111.113 18.6149 111.113 18.5864V17.3921H111.035C111.004 17.3921 110.988 17.3767 110.988 17.3457V17.0064C110.988 16.9755 111.004 16.96 111.035 16.96H111.113V16.7282C111.113 16.6973 111.128 16.6818 111.159 16.6818H111.652C111.683 16.6818 111.699 16.6973 111.699 16.7282V16.96H111.878C111.909 16.96 111.925 16.9755 111.925 17.0064V17.3457C111.925 17.3767 111.909 17.3921 111.878 17.3921H111.699V18.3824C111.699 18.4059 111.706 18.4251 111.721 18.4399L111.903 18.6235C111.915 18.6347 111.921 18.6532 111.921 18.6792V18.9536C111.921 18.9845 111.906 19 111.875 19H111.526ZM112.305 19C112.274 19 112.259 18.9845 112.259 18.9536V17.0064C112.259 16.9755 112.274 16.96 112.305 16.96H113.297C113.326 16.96 113.35 16.9705 113.371 16.9915L113.742 17.3624C113.763 17.3822 113.774 17.4069 113.774 17.4366V18.9536C113.774 18.9845 113.758 19 113.727 19H113.232C113.201 19 113.186 18.9845 113.186 18.9536V17.5108C113.186 17.4527 113.157 17.4236 113.099 17.4236H112.847V18.9536C112.847 18.9845 112.831 19 112.8 19H112.305ZM115.038 19C115.026 19 115.012 18.9981 114.997 18.9944C114.984 18.9907 114.971 18.9876 114.958 18.9852L114.628 18.9036L114.25 18.7775C114.213 18.7651 114.194 18.7292 114.194 18.6699V17.4366C114.194 17.4069 114.205 17.3822 114.226 17.3624L114.597 16.9915C114.618 16.9705 114.643 16.96 114.671 16.96H115.264C115.293 16.96 115.318 16.9705 115.339 16.9915L115.71 17.3624C115.731 17.3822 115.741 17.4069 115.741 17.4366V18.197H114.745L114.732 18.4436L114.996 18.5308L115.468 18.5642C115.489 18.5679 115.5 18.5821 115.5 18.6068V18.9536C115.5 18.9845 115.485 19 115.454 19H115.038ZM114.964 17.9058H114.999C115.06 17.9058 115.108 17.8829 115.144 17.8372C115.181 17.7915 115.2 17.7296 115.2 17.6517V17.6147C115.2 17.538 115.181 17.4768 115.144 17.4311C115.108 17.3853 115.06 17.3624 114.999 17.3624H114.962C114.903 17.3624 114.855 17.3853 114.819 17.4311C114.785 17.4768 114.767 17.538 114.767 17.6147V17.6517C114.767 17.7296 114.785 17.7915 114.819 17.8372C114.855 17.8829 114.903 17.9058 114.964 17.9058ZM116.173 19C116.143 19 116.127 18.9845 116.127 18.9536V17.0064C116.127 16.9755 116.143 16.96 116.173 16.96H116.455C116.479 16.96 116.499 16.9705 116.517 16.9915L116.698 17.2011L116.9 16.9823C116.914 16.9674 116.931 16.96 116.952 16.96H117.153C117.184 16.96 117.199 16.9755 117.199 17.0064V17.4051C117.199 17.4249 117.198 17.4385 117.195 17.4459C117.193 17.4521 117.186 17.4589 117.175 17.4663L116.715 17.8057V18.9536C116.715 18.9845 116.7 19 116.669 19H116.173Z" fill="white"/>
</svg>
