<svg width="785" height="79" viewBox="0 0 785 79" fill="none" xmlns="http://www.w3.org/2000/svg">
<circle cx="712" cy="24" r="2" fill="white"/>
<path d="M688.679 5.27273V14H686.574V7.24148H686.523L684.571 8.43466V6.6108L686.723 5.27273H688.679ZM691.352 14.1236C691.045 14.1236 690.782 14.0156 690.564 13.7997C690.348 13.5838 690.241 13.3224 690.244 13.0156C690.241 12.7145 690.348 12.4574 690.564 12.2443C690.782 12.0284 691.045 11.9205 691.352 11.9205C691.642 11.9205 691.897 12.0284 692.119 12.2443C692.343 12.4574 692.457 12.7145 692.46 13.0156C692.457 13.2202 692.403 13.4062 692.298 13.5739C692.196 13.7415 692.061 13.875 691.893 13.9744C691.728 14.0739 691.548 14.1236 691.352 14.1236ZM693.815 14L697.335 7.02841V6.97301H693.218V5.27273H699.517V6.9858L695.984 14H693.815ZM703.898 14.1193C703.262 14.1193 702.697 14.0043 702.202 13.7741C701.708 13.544 701.317 13.2273 701.031 12.8239C700.746 12.4205 700.599 11.9574 700.587 11.4347H702.633C702.65 11.7557 702.781 12.0142 703.025 12.2102C703.269 12.4034 703.56 12.5 703.898 12.5C704.163 12.5 704.397 12.4418 704.602 12.3253C704.806 12.2088 704.967 12.0455 705.083 11.8352C705.2 11.6222 705.256 11.3778 705.254 11.1023C705.256 10.821 705.198 10.5753 705.079 10.3651C704.962 10.1548 704.8 9.99148 704.593 9.875C704.388 9.75568 704.153 9.69602 703.886 9.69602C703.633 9.69318 703.393 9.74858 703.165 9.86222C702.941 9.97585 702.771 10.1307 702.654 10.3267L700.792 9.97727L701.171 5.27273H706.771V6.97301H702.906L702.705 9.03125H702.756C702.901 8.78977 703.134 8.59091 703.455 8.43466C703.779 8.27557 704.147 8.19602 704.559 8.19602C705.082 8.19602 705.548 8.31818 705.957 8.5625C706.369 8.80398 706.692 9.1392 706.928 9.56818C707.167 9.99716 707.286 10.4886 707.286 11.0426C707.286 11.642 707.144 12.1733 706.86 12.6364C706.579 13.0994 706.184 13.4631 705.675 13.7273C705.17 13.9886 704.577 14.1193 703.898 14.1193ZM711.094 14V4.54545H713.38V12.1442H717.313V14H711.094ZM720.495 14.12C720.042 14.12 719.641 14.0446 719.29 13.8938C718.942 13.7399 718.667 13.5091 718.464 13.2013C718.263 12.8905 718.163 12.5012 718.163 12.0334C718.163 11.6394 718.233 11.3071 718.371 11.0362C718.51 10.7654 718.7 10.5453 718.944 10.3761C719.187 10.2068 719.467 10.0791 719.784 9.9929C720.101 9.90365 720.439 9.84363 720.799 9.81285C721.203 9.77592 721.527 9.73745 721.774 9.69744C722.02 9.65436 722.198 9.59434 722.309 9.5174C722.423 9.43738 722.48 9.32505 722.48 9.1804V9.15732C722.48 8.92034 722.398 8.73722 722.235 8.60795C722.072 8.47869 721.852 8.41406 721.575 8.41406C721.276 8.41406 721.036 8.47869 720.855 8.60795C720.673 8.73722 720.558 8.91572 720.509 9.14347L718.427 9.0696C718.488 8.63873 718.647 8.25402 718.902 7.91548C719.161 7.57386 719.515 7.30611 719.964 7.11222C720.416 6.91525 720.959 6.81676 721.593 6.81676C722.046 6.81676 722.463 6.87062 722.845 6.97834C723.226 7.08298 723.559 7.23686 723.842 7.43999C724.125 7.64003 724.343 7.88625 724.497 8.17862C724.654 8.471 724.733 8.80492 724.733 9.1804V14H722.609V13.0121H722.554C722.428 13.2521 722.266 13.4553 722.069 13.6214C721.875 13.7876 721.646 13.9123 721.381 13.9954C721.12 14.0785 720.824 14.12 720.495 14.12ZM721.192 12.6428C721.435 12.6428 721.653 12.5935 721.847 12.495C722.044 12.3965 722.201 12.2611 722.318 12.0888C722.435 11.9134 722.494 11.7102 722.494 11.4794V10.8054C722.429 10.8393 722.351 10.87 722.258 10.8977C722.169 10.9254 722.071 10.9516 721.963 10.9762C721.855 11.0008 721.744 11.0224 721.63 11.0408C721.517 11.0593 721.407 11.0762 721.303 11.0916C721.09 11.1255 720.909 11.1778 720.758 11.2486C720.61 11.3194 720.496 11.4117 720.416 11.5256C720.339 11.6364 720.301 11.7687 720.301 11.9226C720.301 12.1565 720.384 12.335 720.55 12.4581C720.719 12.5812 720.933 12.6428 721.192 12.6428ZM728.149 12.1396L728.158 9.44815H728.472L730.466 6.90909H733.024L730.06 10.5469H729.465L728.149 12.1396ZM726.113 14V4.54545H728.37V14H726.113ZM730.517 14L728.661 11.0547L730.148 9.45277L733.125 14H730.517ZM736.089 9.95597V14H733.832V4.54545H736.015V8.21094H736.094C736.254 7.77391 736.515 7.43229 736.879 7.18608C737.245 6.93987 737.693 6.81676 738.222 6.81676C738.721 6.81676 739.155 6.92756 739.524 7.14915C739.893 7.36766 740.179 7.67696 740.383 8.07706C740.589 8.47715 740.69 8.94496 740.687 9.48047V14H738.43V9.92365C738.433 9.52971 738.334 9.22195 738.134 9.00035C737.934 8.77876 737.653 8.66797 737.29 8.66797C737.053 8.66797 736.843 8.72029 736.662 8.82493C736.483 8.92649 736.343 9.07268 736.242 9.26349C736.143 9.45431 736.092 9.68513 736.089 9.95597Z" fill="white"/>
<path d="M656.68 51.3H652.5L652.9 49H663.98L663.56 51.3H659.4L657.34 63H654.62L656.68 51.3ZM664.747 50.96L664.967 49.68L666.067 48.76H667.447L668.187 49.68L667.967 51L666.927 51.88H665.507L664.747 50.96ZM664.687 53.04H667.327L665.567 63H662.927L664.687 53.04ZM669.436 60.8L670.416 55.26H668.616L669.016 53.04H670.856L671.416 49.8H674.016L673.456 53.04H676.496L676.096 55.28H673.056L672.196 60.1L672.776 60.76H675.136L674.736 63H671.276L669.436 60.8ZM679.077 48.72H681.717L679.177 63H676.537L679.077 48.72ZM681.872 60.8L682.892 54.96L685.152 53.04H690.752L692.592 55.28L691.952 58.9H684.852L684.632 60.18L685.152 60.84H688.392L689.112 60.22L689.192 59.7H691.792L691.532 61.2L689.432 63H683.672L681.872 60.8ZM689.632 57.06L689.852 55.9L689.292 55.2H686.192L685.392 55.9L685.172 57.06H689.632ZM699.001 60.68L699.341 58.84H702.021L701.801 60.02L702.341 60.68H706.461L707.261 60L707.681 57.68L707.141 57.02H702.001L700.081 54.7L700.721 51L703.081 49H709.381L711.321 51.32L711.001 53.18H708.321L708.521 51.98L707.981 51.32H704.021L703.241 51.98L702.881 54.04L703.421 54.7H708.561L710.481 57.02L709.761 61L707.421 63H700.921L699.001 60.68ZM713.275 53.04H715.715L715.455 54.5L717.175 53.04H720.875L722.715 55.28L721.675 61.12L719.475 63H715.595L714.375 61.8L713.415 67.24H710.775L713.275 53.04ZM718.395 60.76L719.215 60.06L719.955 55.98L719.375 55.28H717.115L715.235 56.9L714.815 59.34L716.135 60.76H718.395ZM723.747 60.76L724.767 54.96L727.007 53.04H732.707L734.547 55.28L733.527 61.12L731.347 63H725.587L723.747 60.76ZM730.247 60.8L731.067 60.1L731.787 55.94L731.207 55.24H728.067L727.247 55.94L726.507 60.1L727.087 60.8H730.247ZM737.143 53.04H739.583L739.283 54.7L741.243 53.04H744.303L746.263 55.42L744.923 63H742.283L743.523 55.98L742.963 55.28H741.363L739.023 57.28L738.023 63H735.383L737.143 53.04ZM747.098 60.88L747.278 59.82H749.878L749.778 60.38L750.138 60.84H753.378L753.898 60.38L754.038 59.52L753.678 59.04H749.538L747.838 56.98L748.238 54.8L750.298 53.04H755.498L757.218 55.16L757.018 56.22H754.418L754.518 55.66L754.158 55.2H751.198L750.678 55.66L750.558 56.44L750.918 56.92H755.058L756.758 58.98L756.358 61.24L754.298 63H748.818L747.098 60.88ZM758.141 60.76L759.161 54.96L761.401 53.04H767.101L768.941 55.28L767.921 61.12L765.741 63H759.981L758.141 60.76ZM764.641 60.8L765.461 60.1L766.181 55.94L765.601 55.24H762.461L761.641 55.94L760.901 60.1L761.481 60.8H764.641ZM771.537 53.04H773.977L773.677 54.7L775.577 53.04H778.417L778.017 55.28H775.797L773.397 57.36L772.417 63H769.777L771.537 53.04Z" fill="white"/>
<circle cx="579" cy="24" r="2" fill="white"/>
<path d="M554.843 47.42L553.703 48.395L554.528 49.52L553.913 53H551.873L552.413 49.895L551.753 48.98H548.423L547.718 53H545.678L547.523 42.5H553.973L555.398 44.24L554.843 47.42ZM548.723 47.3H552.323L552.938 46.775L553.298 44.735L552.863 44.21H549.263L548.723 47.3ZM555.86 51.32L556.625 46.97L558.305 45.53H562.58L563.96 47.21L563.195 51.59L561.56 53H557.24L555.86 51.32ZM560.735 51.35L561.35 50.825L561.89 47.705L561.455 47.18H559.1L558.485 47.705L557.93 50.825L558.365 51.35H560.735ZM564.902 51.26L566.477 42.29H568.457L567.707 46.565L568.982 45.53H571.592L572.957 47.21L572.177 51.59L570.542 53H566.312L564.902 51.26ZM569.687 51.32L570.362 50.735L570.872 47.795L570.407 47.21H568.937L567.347 48.56L566.972 50.735L567.437 51.32H569.687ZM573.731 51.32L574.496 46.97L576.176 45.53H580.451L581.831 47.21L581.066 51.59L579.431 53H575.111L573.731 51.32ZM578.606 51.35L579.221 50.825L579.761 47.705L579.326 47.18H576.971L576.356 47.705L575.801 50.825L576.236 51.35H578.606ZM583.119 42.5H585.129L585.099 49.91H585.159L588.549 42.5H590.079L590.814 49.91H590.874L593.454 42.5H595.554L591.534 53H589.629L588.834 45.62H588.774L585.354 53H583.449L583.119 42.5ZM594.412 51.5L594.697 49.82L596.212 48.53H600.097L600.247 47.585L599.872 47.12H597.637L597.097 47.585L597.022 48.005H595.072L595.267 47.03L597.007 45.53H600.847L602.272 47.27L601.267 53H599.482L599.662 51.935L598.372 53H595.642L594.412 51.5ZM598.507 51.47L599.767 50.435L599.857 49.94H597.037L596.557 50.345L596.422 51.095L596.737 51.47H598.507ZM604.315 45.53H606.145L605.92 46.775L607.345 45.53H609.475L609.175 47.21H607.51L605.71 48.77L604.975 53H602.995L604.315 45.53ZM534.1 62.5H535.96L537.955 73H535.885L535.465 70.675H531.775L530.485 73H528.415L534.1 62.5ZM535.27 68.995L534.595 65.005H534.565L532.495 68.995H535.27ZM540.257 65.53H542.087L541.862 66.775L543.287 65.53H545.417L545.117 67.21H543.452L541.652 68.77L540.917 73H538.937L540.257 65.53ZM544.844 71.35L545.609 66.97L547.304 65.53H551.504L552.884 67.21L552.404 69.925H547.079L546.914 70.885L547.304 71.38H549.734L550.274 70.915L550.334 70.525H552.284L552.089 71.65L550.514 73H546.194L544.844 71.35ZM550.664 68.545L550.829 67.675L550.409 67.15H548.084L547.484 67.675L547.319 68.545H550.664ZM554.759 65.53H556.589L556.364 66.775L557.834 65.53H560.129L561.599 67.315L560.594 73H558.614L559.544 67.735L559.124 67.21H557.924L556.169 68.71L555.419 73H553.439L554.759 65.53ZM562.361 71.5L562.646 69.82L564.161 68.53H568.046L568.196 67.585L567.821 67.12H565.586L565.046 67.585L564.971 68.005H563.021L563.216 67.03L564.956 65.53H568.796L570.221 67.27L569.216 73H567.431L567.611 71.935L566.321 73H563.591L562.361 71.5ZM566.456 71.47L567.716 70.435L567.806 69.94H564.986L564.506 70.345L564.371 71.095L564.686 71.47H566.456ZM576.966 62.5H583.416L584.841 64.24L584.181 67.96L582.456 69.43H577.791L577.161 73H575.121L576.966 62.5ZM581.691 67.72L582.306 67.195L582.741 64.735L582.306 64.21H578.706L578.091 67.72H581.691ZM584.392 71.5L584.677 69.82L586.192 68.53H590.077L590.227 67.585L589.852 67.12H587.617L587.077 67.585L587.002 68.005H585.052L585.247 67.03L586.987 65.53H590.827L592.252 67.27L591.247 73H589.462L589.642 71.935L588.352 73H585.622L584.392 71.5ZM588.487 71.47L589.747 70.435L589.837 69.94H587.017L586.537 70.345L586.402 71.095L586.717 71.47H588.487ZM594.295 65.53H596.125L595.9 66.775L597.325 65.53H599.455L599.155 67.21H597.49L595.69 68.77L594.955 73H592.975L594.295 65.53ZM600.073 71.35L600.808 67.195H599.458L599.758 65.53H601.138L601.558 63.1H603.508L603.088 65.53H605.368L605.068 67.21H602.788L602.143 70.825L602.578 71.32H604.348L604.048 73H601.453L600.073 71.35ZM606.644 65.53H608.474L608.249 66.775L609.719 65.53H612.014L613.484 67.315L612.479 73H610.499L611.429 67.735L611.009 67.21H609.809L608.054 68.71L607.304 73H605.324L606.644 65.53ZM614.351 71.35L615.116 66.97L616.811 65.53H621.011L622.391 67.21L621.911 69.925H616.586L616.421 70.885L616.811 71.38H619.241L619.781 70.915L619.841 70.525H621.791L621.596 71.65L620.021 73H615.701L614.351 71.35ZM620.171 68.545L620.336 67.675L619.916 67.15H617.591L616.991 67.675L616.826 68.545H620.171ZM624.266 65.53H626.096L625.871 66.775L627.296 65.53H629.426L629.126 67.21H627.461L625.661 68.77L624.926 73H622.946L624.266 65.53Z" fill="white"/>
<path d="M561.88 3.54545V13H559.881V5.44283H559.825L557.66 6.80007V5.02734L560.001 3.54545H561.88ZM564.787 13.12C564.482 13.12 564.221 13.0123 564.002 12.7969C563.787 12.5784 563.679 12.3168 563.679 12.0121C563.679 11.7105 563.787 11.4519 564.002 11.2365C564.221 11.0211 564.482 10.9134 564.787 10.9134C565.082 10.9134 565.341 11.0211 565.562 11.2365C565.784 11.4519 565.895 11.7105 565.895 12.0121C565.895 12.2152 565.842 12.4014 565.738 12.5707C565.636 12.7369 565.502 12.8707 565.336 12.9723C565.17 13.0708 564.987 13.12 564.787 13.12ZM570.868 13.1293C570.215 13.1293 569.634 13.0092 569.123 12.7692C568.615 12.5291 568.212 12.1983 567.913 11.7766C567.615 11.355 567.459 10.8718 567.447 10.3271H569.386C569.408 10.6933 569.561 10.9903 569.848 11.218C570.134 11.4458 570.474 11.5597 570.868 11.5597C571.182 11.5597 571.459 11.4904 571.699 11.3519C571.942 11.2103 572.131 11.0149 572.267 10.7656C572.405 10.5133 572.474 10.224 572.474 9.89773C572.474 9.56534 572.404 9.27296 572.262 9.0206C572.124 8.76823 571.931 8.57126 571.685 8.42969C571.439 8.28812 571.157 8.21579 570.84 8.21271C570.563 8.21271 570.294 8.26965 570.032 8.38352C569.774 8.4974 569.572 8.65282 569.428 8.84979L567.65 8.53125L568.098 3.54545H573.878V5.17969H569.746L569.501 7.54794H569.557C569.723 7.31404 569.974 7.12015 570.309 6.96626C570.645 6.81238 571.02 6.73544 571.436 6.73544C572.005 6.73544 572.513 6.86932 572.959 7.13707C573.405 7.40483 573.758 7.77261 574.016 8.24041C574.275 8.70514 574.403 9.24065 574.4 9.84695C574.403 10.484 574.255 11.0503 573.956 11.5458C573.661 12.0382 573.247 12.426 572.714 12.7092C572.185 12.9892 571.57 13.1293 570.868 13.1293ZM578.858 13V3.54545H580.857V11.3519H584.91V13H578.858ZM588.219 13.1339C587.767 13.1339 587.363 13.0554 587.009 12.8984C586.655 12.7384 586.375 12.503 586.169 12.1921C585.966 11.8782 585.865 11.4873 585.865 11.0195C585.865 10.6256 585.937 10.2947 586.081 10.027C586.226 9.75923 586.423 9.5438 586.672 9.38068C586.922 9.21757 587.205 9.09446 587.522 9.01136C587.842 8.92827 588.177 8.86979 588.528 8.83594C588.941 8.79285 589.273 8.75284 589.525 8.71591C589.778 8.6759 589.961 8.61742 590.075 8.54048C590.189 8.46354 590.246 8.34967 590.246 8.19886V8.17116C590.246 7.87879 590.153 7.65258 589.969 7.49254C589.787 7.3325 589.528 7.25249 589.193 7.25249C588.839 7.25249 588.557 7.33097 588.348 7.48793C588.139 7.64181 588 7.8357 587.933 8.0696L586.114 7.92188C586.206 7.491 586.388 7.11861 586.659 6.80469C586.929 6.48769 587.279 6.24455 587.706 6.07528C588.137 5.90294 588.636 5.81676 589.202 5.81676C589.596 5.81676 589.973 5.86293 590.333 5.95526C590.696 6.04759 591.018 6.1907 591.298 6.38459C591.581 6.57848 591.804 6.82777 591.968 7.13246C592.131 7.43407 592.212 7.79569 592.212 8.21733V13H590.347V12.0167H590.292C590.178 12.2383 590.026 12.4337 589.835 12.603C589.644 12.7692 589.415 12.9 589.147 12.9954C588.879 13.0877 588.57 13.1339 588.219 13.1339ZM588.782 11.7766C589.071 11.7766 589.327 11.7197 589.548 11.6058C589.77 11.4889 589.944 11.3319 590.07 11.1349C590.196 10.938 590.259 10.7148 590.259 10.4656V9.71307C590.198 9.75308 590.113 9.79001 590.006 9.82386C589.901 9.85464 589.782 9.88388 589.65 9.91158C589.518 9.9362 589.385 9.95928 589.253 9.98082C589.121 9.99929 589.001 10.0162 588.893 10.0316C588.662 10.0655 588.461 10.1193 588.288 10.1932C588.116 10.267 587.982 10.3671 587.887 10.4933C587.791 10.6164 587.743 10.7702 587.743 10.9549C587.743 11.2227 587.84 11.4273 588.034 11.5689C588.231 11.7074 588.481 11.7766 588.782 11.7766ZM595.52 10.9595L595.525 8.6005H595.811L598.082 5.90909H600.339L597.288 9.47301H596.822L595.52 10.9595ZM593.738 13V3.54545H595.705V13H593.738ZM598.17 13L596.083 9.91158L597.394 8.52202L600.473 13H598.17ZM603.271 8.90057V13H601.304V3.54545H603.216V7.16016H603.299C603.459 6.7416 603.717 6.41383 604.074 6.17685C604.431 5.93679 604.879 5.81676 605.418 5.81676C605.91 5.81676 606.339 5.92448 606.706 6.13991C607.075 6.35227 607.361 6.6585 607.564 7.05859C607.77 7.45561 607.872 7.93111 607.869 8.48508V13H605.902V8.83594C605.905 8.39891 605.795 8.05883 605.57 7.8157C605.348 7.57256 605.038 7.45099 604.637 7.45099C604.37 7.45099 604.133 7.50793 603.926 7.6218C603.723 7.73568 603.563 7.90187 603.446 8.12038C603.333 8.33582 603.274 8.59588 603.271 8.90057Z" fill="white"/>
<path d="M453 24.0202C453 25.1359 452.105 26 451 26C449.895 26 449 25.1359 449 24.0202C449 22.9045 449.895 22 451 22C452.105 22 453 22.9045 453 24.0202Z" fill="white"/>
<path d="M426.88 4.54545V14H424.881V6.44283H424.825L422.66 7.80007V6.02734L425.001 4.54545H426.88ZM429.787 14.12C429.482 14.12 429.221 14.0123 429.002 13.7969C428.787 13.5784 428.679 13.3168 428.679 13.0121C428.679 12.7105 428.787 12.4519 429.002 12.2365C429.221 12.0211 429.482 11.9134 429.787 11.9134C430.082 11.9134 430.341 12.0211 430.562 12.2365C430.784 12.4519 430.895 12.7105 430.895 13.0121C430.895 13.2152 430.842 13.4014 430.738 13.5707C430.636 13.7369 430.502 13.8707 430.336 13.9723C430.17 14.0708 429.987 14.12 429.787 14.12ZM432.491 14V12.5597L435.856 9.44354C436.143 9.16655 436.383 8.91726 436.577 8.69567C436.773 8.47408 436.923 8.2571 437.024 8.04474C437.126 7.82931 437.177 7.59695 437.177 7.34766C437.177 7.07067 437.114 6.83215 436.987 6.6321C436.861 6.42898 436.689 6.27356 436.47 6.16584C436.252 6.05504 436.004 5.99964 435.727 5.99964C435.438 5.99964 435.185 6.05812 434.97 6.17507C434.755 6.29202 434.588 6.45975 434.471 6.67827C434.354 6.89678 434.296 7.15684 434.296 7.45845H432.399C432.399 6.83984 432.539 6.30279 432.819 5.8473C433.099 5.39181 433.491 5.03942 433.996 4.79013C434.501 4.54084 435.082 4.41619 435.741 4.41619C436.418 4.41619 437.007 4.53622 437.509 4.77628C438.014 5.01326 438.406 5.34257 438.686 5.7642C438.966 6.18584 439.106 6.66903 439.106 7.21378C439.106 7.57079 439.036 7.92318 438.894 8.27095C438.756 8.61873 438.508 9.00497 438.151 9.42969C437.794 9.85133 437.291 10.3576 436.641 10.9485L435.261 12.3011V12.3658H439.231V14H432.491ZM444.133 14.1293C443.48 14.1293 442.898 14.0092 442.388 13.7692C441.88 13.5291 441.477 13.1983 441.178 12.7766C440.879 12.355 440.724 11.8718 440.712 11.3271H442.651C442.672 11.6933 442.826 11.9903 443.112 12.218C443.399 12.4458 443.739 12.5597 444.133 12.5597C444.446 12.5597 444.723 12.4904 444.964 12.3519C445.207 12.2103 445.396 12.0149 445.531 11.7656C445.67 11.5133 445.739 11.224 445.739 10.8977C445.739 10.5653 445.668 10.273 445.527 10.0206C445.388 9.76823 445.196 9.57126 444.95 9.42969C444.703 9.28812 444.422 9.21579 444.105 9.21271C443.828 9.21271 443.559 9.26965 443.297 9.38352C443.038 9.4974 442.837 9.65282 442.692 9.84979L440.915 9.53125L441.363 4.54545H447.142V6.17969H443.011L442.766 8.54794H442.821C442.988 8.31404 443.238 8.12015 443.574 7.96626C443.909 7.81238 444.285 7.73544 444.7 7.73544C445.27 7.73544 445.778 7.86932 446.224 8.13707C446.67 8.40483 447.022 8.77261 447.281 9.24041C447.54 9.70514 447.667 10.2406 447.664 10.8469C447.667 11.484 447.52 12.0503 447.221 12.5458C446.926 13.0382 446.512 13.426 445.979 13.7092C445.45 13.9892 444.834 14.1293 444.133 14.1293ZM452.123 14V4.54545H454.121V12.3519H458.175V14H452.123ZM461.484 14.1339C461.031 14.1339 460.628 14.0554 460.274 13.8984C459.92 13.7384 459.64 13.503 459.434 13.1921C459.231 12.8782 459.129 12.4873 459.129 12.0195C459.129 11.6256 459.201 11.2947 459.346 11.027C459.491 10.7592 459.688 10.5438 459.937 10.3807C460.186 10.2176 460.469 10.0945 460.786 10.0114C461.107 9.92827 461.442 9.86979 461.793 9.83594C462.205 9.79285 462.538 9.75284 462.79 9.71591C463.042 9.6759 463.226 9.61742 463.339 9.54048C463.453 9.46354 463.51 9.34967 463.51 9.19886V9.17116C463.51 8.87879 463.418 8.65258 463.233 8.49254C463.052 8.3325 462.793 8.25249 462.458 8.25249C462.104 8.25249 461.822 8.33097 461.613 8.48793C461.404 8.64181 461.265 8.8357 461.197 9.0696L459.378 8.92188C459.471 8.491 459.652 8.11861 459.923 7.80469C460.194 7.48769 460.543 7.24455 460.971 7.07528C461.402 6.90294 461.901 6.81676 462.467 6.81676C462.861 6.81676 463.238 6.86293 463.598 6.95526C463.961 7.04759 464.283 7.1907 464.563 7.38459C464.846 7.57848 465.069 7.82777 465.232 8.13246C465.395 8.43407 465.477 8.79569 465.477 9.21733V14H463.612V13.0167H463.556C463.443 13.2383 463.29 13.4337 463.099 13.603C462.909 13.7692 462.679 13.9 462.411 13.9954C462.144 14.0877 461.834 14.1339 461.484 14.1339ZM462.047 12.7766C462.336 12.7766 462.592 12.7197 462.813 12.6058C463.035 12.4889 463.209 12.3319 463.335 12.1349C463.461 11.938 463.524 11.7148 463.524 11.4656V10.7131C463.463 10.7531 463.378 10.79 463.27 10.8239C463.166 10.8546 463.047 10.8839 462.915 10.9116C462.782 10.9362 462.65 10.9593 462.518 10.9808C462.385 10.9993 462.265 11.0162 462.158 11.0316C461.927 11.0655 461.725 11.1193 461.553 11.1932C461.38 11.267 461.247 11.3671 461.151 11.4933C461.056 11.6164 461.008 11.7702 461.008 11.9549C461.008 12.2227 461.105 12.4273 461.299 12.5689C461.496 12.7074 461.745 12.7766 462.047 12.7766ZM468.785 11.9595L468.789 9.6005H469.075L471.347 6.90909H473.604L470.553 10.473H470.086L468.785 11.9595ZM467.003 14V4.54545H468.969V14H467.003ZM471.434 14L469.348 10.9116L470.659 9.52202L473.738 14H471.434ZM476.536 9.90057V14H474.569V4.54545H476.48V8.16016H476.563C476.723 7.7416 476.982 7.41383 477.339 7.17685C477.696 6.93679 478.144 6.81676 478.682 6.81676C479.175 6.81676 479.604 6.92448 479.97 7.13991C480.34 7.35227 480.626 7.6585 480.829 8.05859C481.035 8.45561 481.137 8.93111 481.134 9.48508V14H479.167V9.83594C479.17 9.39891 479.059 9.05883 478.835 8.8157C478.613 8.57256 478.302 8.45099 477.902 8.45099C477.634 8.45099 477.397 8.50793 477.191 8.6218C476.988 8.73568 476.828 8.90187 476.711 9.12038C476.597 9.33582 476.539 9.59588 476.536 9.90057Z" fill="white"/>
<path d="M413.462 56.264L414.624 49.698L416.374 48.2H421.148L422.562 49.894L422.31 51.28H420.406L420.546 50.482L420.014 49.824H417.214L416.374 50.538L415.464 55.662L416.052 56.376H418.852L419.622 55.718L419.776 54.92H421.68L421.386 56.53L419.664 58H414.89L413.462 56.264ZM422.538 56.432L423.252 52.372L424.82 51.028H428.81L430.098 52.596L429.384 56.684L427.858 58H423.826L422.538 56.432ZM427.088 56.46L427.662 55.97L428.166 53.058L427.76 52.568H425.562L424.988 53.058L424.47 55.97L424.876 56.46H427.088ZM431.173 53.604H436.101L435.821 55.2H430.893L431.173 53.604ZM436.675 56.376L436.913 55.088H438.789L438.635 55.914L439.013 56.376H441.897L442.457 55.9L442.751 54.276L442.373 53.814H438.775L437.431 52.19L437.879 49.6L439.531 48.2H443.941L445.299 49.824L445.075 51.126H443.199L443.339 50.286L442.961 49.824H440.189L439.643 50.286L439.391 51.728L439.769 52.19H443.367L444.711 53.814L444.207 56.6L442.569 58H438.019L436.675 56.376ZM446.667 51.028H448.375L448.193 52.05L449.397 51.028H451.987L453.275 52.596L452.547 56.684L451.007 58H448.291L447.437 57.16L446.765 60.968H444.917L446.667 51.028ZM450.251 56.432L450.825 55.942L451.343 53.086L450.937 52.596H449.355L448.039 53.73L447.745 55.438L448.669 56.432H450.251ZM453.997 56.432L454.711 52.372L456.279 51.028H460.269L461.557 52.596L460.843 56.684L459.317 58H455.285L453.997 56.432ZM458.547 56.46L459.121 55.97L459.625 53.058L459.219 52.568H457.021L456.447 53.058L455.929 55.97L456.335 56.46H458.547ZM463.374 51.028H465.082L464.872 52.19L466.244 51.028H468.386L469.758 52.694L468.82 58H466.972L467.84 53.086L467.448 52.596H466.328L464.69 53.996L463.99 58H462.142L463.374 51.028ZM470.343 56.516L470.469 55.774H472.289L472.219 56.166L472.471 56.488H474.739L475.103 56.166L475.201 55.564L474.949 55.228H472.051L470.861 53.786L471.141 52.26L472.583 51.028H476.223L477.427 52.512L477.287 53.254H475.467L475.537 52.862L475.285 52.54H473.213L472.849 52.862L472.765 53.408L473.017 53.744H475.915L477.105 55.186L476.825 56.768L475.383 58H471.547L470.343 56.516ZM478.073 56.432L478.787 52.372L480.355 51.028H484.345L485.633 52.596L484.919 56.684L483.393 58H479.361L478.073 56.432ZM482.623 56.46L483.197 55.97L483.701 53.058L483.295 52.568H481.097L480.523 53.058L480.005 55.97L480.411 56.46H482.623ZM487.45 51.028H489.158L488.948 52.19L490.278 51.028H492.266L491.986 52.596H490.432L488.752 54.052L488.066 58H486.218L487.45 51.028Z" fill="white"/>
<circle cx="203" cy="24" r="2" fill="white"/>
<path d="M196.219 14.1293C195.567 14.1293 194.985 14.0092 194.474 13.7692C193.967 13.5291 193.563 13.1983 193.265 12.7766C192.966 12.355 192.811 11.8718 192.799 11.3271H194.738C194.759 11.6933 194.913 11.9903 195.199 12.218C195.485 12.4458 195.826 12.5597 196.219 12.5597C196.533 12.5597 196.81 12.4904 197.05 12.3519C197.294 12.2103 197.483 12.0149 197.618 11.7656C197.757 11.5133 197.826 11.224 197.826 10.8977C197.826 10.5653 197.755 10.273 197.614 10.0206C197.475 9.76823 197.283 9.57126 197.037 9.42969C196.79 9.28812 196.509 9.21579 196.192 9.21271C195.915 9.21271 195.645 9.26965 195.384 9.38352C195.125 9.4974 194.924 9.65282 194.779 9.84979L193.002 9.53125L193.45 4.54545H199.229V6.17969H195.098L194.853 8.54794H194.908C195.075 8.31404 195.325 8.12015 195.661 7.96626C195.996 7.81238 196.372 7.73544 196.787 7.73544C197.357 7.73544 197.864 7.86932 198.311 8.13707C198.757 8.40483 199.109 8.77261 199.368 9.24041C199.626 9.70514 199.754 10.2406 199.751 10.8469C199.754 11.484 199.606 12.0503 199.308 12.5458C199.012 13.0382 198.598 13.426 198.066 13.7092C197.537 13.9892 196.921 14.1293 196.219 14.1293ZM204.852 14.2077C204.058 14.2047 203.375 14.0092 202.803 13.6214C202.233 13.2337 201.795 12.672 201.487 11.9364C201.182 11.2009 201.031 10.3161 201.034 9.28196C201.034 8.25095 201.187 7.37228 201.491 6.64595C201.799 5.91963 202.238 5.36719 202.807 4.98864C203.38 4.60701 204.061 4.41619 204.852 4.41619C205.643 4.41619 206.323 4.60701 206.893 4.98864C207.465 5.37026 207.905 5.92424 208.213 6.65057C208.521 7.37382 208.673 8.25095 208.67 9.28196C208.67 10.3191 208.516 11.2055 208.208 11.9411C207.904 12.6766 207.467 13.2383 206.897 13.6261C206.328 14.0138 205.646 14.2077 204.852 14.2077ZM204.852 12.5504C205.394 12.5504 205.826 12.2781 206.15 11.7333C206.473 11.1886 206.633 10.3714 206.63 9.28196C206.63 8.56487 206.556 7.9678 206.408 7.49077C206.263 7.01373 206.057 6.65518 205.789 6.41513C205.525 6.17507 205.212 6.05504 204.852 6.05504C204.314 6.05504 203.883 6.32434 203.56 6.86293C203.237 7.40151 203.073 8.20786 203.07 9.28196C203.07 10.0083 203.143 10.6146 203.287 11.1009C203.435 11.584 203.643 11.9472 203.911 12.1903C204.178 12.4304 204.492 12.5504 204.852 12.5504ZM210.151 14V4.54545H212.15V8.71413H212.274L215.677 4.54545H218.073L214.564 8.77876L218.114 14H215.723L213.133 10.1129L212.15 11.3132V14H210.151Z" fill="white"/>
<path d="M135.8 42.6H137.432L135.944 51H134.312L135.8 42.6ZM138.564 45.024H140.028L139.848 46.02L141.024 45.024H142.86L144.036 46.452L143.232 51H141.648L142.392 46.788L142.056 46.368H141.096L139.692 47.568L139.092 51H137.508L138.564 45.024ZM144.73 49.656L145.342 46.176L146.686 45.024H149.062L149.734 45.72L150.322 42.432H151.906L150.394 51H148.906L149.062 50.076L147.994 51H145.834L144.73 49.656ZM148.078 49.656L149.23 48.66L149.506 47.1L148.822 46.368H147.358L146.818 46.836L146.398 49.188L146.77 49.656H148.078ZM152.021 49.644L152.825 45.024H154.409L153.665 49.248L154.001 49.656H154.937L156.353 48.456L156.953 45.024H158.537L157.481 51H156.017L156.197 49.98L154.985 51H153.125L152.021 49.644ZM158.847 49.728L158.955 49.092H160.515L160.455 49.428L160.671 49.704H162.615L162.927 49.428L163.011 48.912L162.795 48.624H160.311L159.291 47.388L159.531 46.08L160.767 45.024H163.887L164.919 46.296L164.799 46.932H163.239L163.299 46.596L163.083 46.32H161.307L160.995 46.596L160.923 47.064L161.139 47.352H163.623L164.643 48.588L164.403 49.944L163.167 51H159.879L158.847 49.728ZM166.12 49.68L166.708 46.356H165.628L165.868 45.024H166.972L167.308 43.08H168.868L168.532 45.024H170.356L170.116 46.368H168.292L167.776 49.26L168.124 49.656H169.54L169.3 51H167.224L166.12 49.68ZM171.377 45.024H172.841L172.661 46.02L173.801 45.024H175.505L175.265 46.368H173.933L172.493 47.616L171.905 51H170.321L171.377 45.024ZM181.963 45.024L180.643 52.488L179.251 53.652H176.095L175.087 52.452L175.219 51.732H176.803L176.743 52.092L176.923 52.332H178.675L179.155 51.912L179.479 50.112L178.435 51H176.359L175.387 49.8L176.227 45.024H177.811L177.067 49.236L177.403 49.656H178.447L179.767 48.468L180.379 45.024H181.963ZM189.502 42.6H190.99L192.586 51H190.93L190.594 49.14H187.642L186.61 51H184.954L189.502 42.6ZM190.438 47.796L189.898 44.604H189.874L188.218 47.796H190.438ZM193.316 49.68L193.928 46.152L195.248 45.024H198.536L199.628 46.368L199.448 47.376H197.864L197.972 46.788L197.624 46.368H195.896L195.404 46.788L194.972 49.236L195.32 49.656H197.048L197.54 49.236L197.648 48.648H199.232L199.004 49.872L197.696 51H194.384L193.316 49.68ZM199.923 49.8L200.151 48.456L201.363 47.424H204.471L204.591 46.668L204.291 46.296H202.503L202.071 46.668L202.011 47.004H200.451L200.607 46.224L201.999 45.024H205.071L206.211 46.416L205.407 51H203.979L204.123 50.148L203.091 51H200.907L199.923 49.8ZM203.199 49.776L204.207 48.948L204.279 48.552H202.023L201.639 48.876L201.531 49.476L201.783 49.776H203.199ZM206.91 49.656L207.522 46.176L208.866 45.024H211.242L211.914 45.72L212.502 42.432H214.086L212.574 51H211.086L211.242 50.076L210.174 51H208.014L206.91 49.656ZM210.258 49.656L211.41 48.66L211.686 47.1L211.002 46.368H209.538L208.998 46.836L208.578 49.188L208.95 49.656H210.258ZM214.128 49.68L214.74 46.176L216.096 45.024H219.456L220.56 46.368L220.176 48.54H215.916L215.784 49.308L216.096 49.704H218.04L218.472 49.332L218.52 49.02H220.08L219.924 49.92L218.664 51H215.208L214.128 49.68ZM218.784 47.436L218.916 46.74L218.58 46.32H216.72L216.24 46.74L216.108 47.436H218.784ZM222.061 45.024H223.525L223.345 46.008L224.497 45.024H225.961L226.633 45.852L227.592 45.024H229.621L230.761 46.416L229.945 51H228.361L229.105 46.788L228.769 46.368H227.773L227.029 47.004L226.321 51H224.785L225.529 46.764L225.217 46.368H224.545L223.201 47.52L222.589 51H221.005L222.061 45.024ZM232.564 43.776L232.696 43.008L233.356 42.456H234.184L234.628 43.008L234.496 43.8L233.872 44.328H233.02L232.564 43.776ZM232.528 45.024H234.112L233.056 51H231.472L232.528 45.024ZM234.646 49.8L234.874 48.456L236.086 47.424H239.194L239.314 46.668L239.014 46.296H237.226L236.794 46.668L236.734 47.004H235.174L235.33 46.224L236.722 45.024H239.794L240.934 46.416L240.13 51H238.702L238.846 50.148L237.814 51H235.63L234.646 49.8ZM237.922 49.776L238.93 48.948L239.002 48.552H236.746L236.362 48.876L236.254 49.476L236.506 49.776H237.922ZM241.932 47.232H246.156L245.916 48.6H241.692L241.932 47.232ZM248.24 42.6H249.656L251.204 48.024H251.228L254.672 42.6H256.28L254.804 51H253.232L254.132 45.888H254.108L251.492 49.824H250.484L249.26 45.888H249.236L248.336 51H246.764L248.24 42.6ZM256.421 49.68L257.033 46.176L258.389 45.024H261.749L262.853 46.368L262.469 48.54H258.209L258.077 49.308L258.389 49.704H260.333L260.765 49.332L260.813 49.02H262.373L262.217 49.92L260.957 51H257.501L256.421 49.68ZM261.077 47.436L261.209 46.74L260.873 46.32H259.013L258.533 46.74L258.401 47.436H261.077ZM263.417 49.68L264.029 46.176L265.385 45.024H268.745L269.849 46.368L269.465 48.54H265.205L265.073 49.308L265.385 49.704H267.329L267.761 49.332L267.809 49.02H269.369L269.213 49.92L267.953 51H264.497L263.417 49.68ZM268.073 47.436L268.205 46.74L267.869 46.32H266.009L265.529 46.74L265.397 47.436H268.073ZM271.062 49.68L271.65 46.356H270.57L270.81 45.024H271.914L272.25 43.08H273.81L273.474 45.024H275.298L275.058 46.368H273.234L272.718 49.26L273.066 49.656H274.482L274.242 51H272.166L271.062 49.68ZM184.783 58.6H189.943L191.083 59.992L190.555 62.968L189.175 64.144H185.443L184.939 67H183.307L184.783 58.6ZM188.563 62.776L189.055 62.356L189.403 60.388L189.055 59.968H186.175L185.683 62.776H188.563ZM190.724 65.8L190.952 64.456L192.164 63.424H195.272L195.392 62.668L195.092 62.296H193.304L192.872 62.668L192.812 63.004H191.252L191.408 62.224L192.8 61.024H195.872L197.012 62.416L196.208 67H194.78L194.924 66.148L193.892 67H191.708L190.724 65.8ZM194 65.776L195.008 64.948L195.08 64.552H192.824L192.44 64.876L192.332 65.476L192.584 65.776H194ZM198.646 61.024H200.11L199.93 62.02L201.07 61.024H202.774L202.534 62.368H201.202L199.762 63.616L199.174 67H197.59L198.646 61.024ZM203.269 65.68L203.857 62.356H202.777L203.017 61.024H204.121L204.457 59.08H206.017L205.681 61.024H207.505L207.265 62.368H205.441L204.925 65.26L205.273 65.656H206.689L206.449 67H204.373L203.269 65.68ZM208.525 61.024H209.989L209.809 62.02L210.985 61.024H212.821L213.997 62.452L213.193 67H211.609L212.353 62.788L212.017 62.368H211.057L209.653 63.568L209.053 67H207.469L208.525 61.024ZM214.691 65.68L215.303 62.176L216.659 61.024H220.019L221.123 62.368L220.739 64.54H216.479L216.347 65.308L216.659 65.704H218.603L219.035 65.332L219.083 65.02H220.643L220.487 65.92L219.227 67H215.771L214.691 65.68ZM219.347 63.436L219.479 62.74L219.143 62.32H217.283L216.803 62.74L216.671 63.436H219.347ZM222.623 61.024H224.087L223.907 62.02L225.047 61.024H226.751L226.511 62.368H225.179L223.739 63.616L223.151 67H221.567L222.623 61.024Z" fill="white"/>
<rect x="5" y="19" width="1" height="10" fill="white"/>
<line x1="0.000647668" y1="23.5" x2="775.001" y2="24.5039" stroke="white"/>
</svg>
